<mxfile host="app.diagrams.net" agent="Mozilla/5.0 (Macintosh; Intel Mac OS X 10_15_7) AppleWebKit/537.36 (KHTML, like Gecko) Chrome/137.0.0.0 Safari/537.36" version="27.1.5">
  <diagram name="第 1 页" id="PTvhyRMZpWbiV6aiUApZ">
    <mxGraphModel dx="1899" dy="1894" grid="1" gridSize="10" guides="1" tooltips="1" connect="1" arrows="1" fold="1" page="1" pageScale="1" pageWidth="827" pageHeight="1169" math="0" shadow="0">
      <root>
        <mxCell id="0" />
        <mxCell id="1" parent="0" />
        <mxCell id="umhTwzKay9UNLT2Jsbxd-204" value="" style="ellipse;whiteSpace=wrap;html=1;rounded=1;strokeColor=default;strokeWidth=1;align=center;verticalAlign=middle;spacing=4;arcSize=50;fontFamily=Helvetica;fontSize=12;fontColor=default;autosize=1;fillColor=default;container=1;" parent="1" vertex="1">
          <mxGeometry x="1380" y="40" width="265" height="150" as="geometry">
            <mxRectangle x="1380" y="40" width="50" height="40" as="alternateBounds" />
          </mxGeometry>
        </mxCell>
        <mxCell id="umhTwzKay9UNLT2Jsbxd-194" value="EndPoint" style="whiteSpace=wrap;html=1;rounded=1;arcSize=50;align=center;verticalAlign=middle;strokeWidth=1;autosize=1;spacing=4;treeFolding=1;treeMoving=1;newEdgeStyle={&quot;edgeStyle&quot;:&quot;entityRelationEdgeStyle&quot;,&quot;startArrow&quot;:&quot;none&quot;,&quot;endArrow&quot;:&quot;none&quot;,&quot;segment&quot;:10,&quot;curved&quot;:1,&quot;sourcePerimeterSpacing&quot;:0,&quot;targetPerimeterSpacing&quot;:0};strokeColor=default;fontFamily=Helvetica;fontSize=12;fontColor=default;fillColor=default;" parent="umhTwzKay9UNLT2Jsbxd-204" vertex="1">
          <mxGeometry x="92.5" y="20" width="90" height="30" as="geometry" />
        </mxCell>
        <mxCell id="umhTwzKay9UNLT2Jsbxd-195" value="Processor" style="whiteSpace=wrap;html=1;rounded=1;arcSize=50;align=center;verticalAlign=middle;strokeWidth=1;autosize=1;spacing=4;treeFolding=1;treeMoving=1;newEdgeStyle={&quot;edgeStyle&quot;:&quot;entityRelationEdgeStyle&quot;,&quot;startArrow&quot;:&quot;none&quot;,&quot;endArrow&quot;:&quot;none&quot;,&quot;segment&quot;:10,&quot;curved&quot;:1,&quot;sourcePerimeterSpacing&quot;:0,&quot;targetPerimeterSpacing&quot;:0};strokeColor=default;fontFamily=Helvetica;fontSize=12;fontColor=default;fillColor=default;" parent="umhTwzKay9UNLT2Jsbxd-204" vertex="1">
          <mxGeometry x="87.5" y="94" width="100" height="30" as="geometry" />
        </mxCell>
        <mxCell id="umhTwzKay9UNLT2Jsbxd-199" value="" style="endArrow=classic;html=1;rounded=0;fontFamily=Helvetica;fontSize=12;fontColor=default;autosize=1;exitX=0.5;exitY=1;exitDx=0;exitDy=0;entryX=0.5;entryY=0;entryDx=0;entryDy=0;" parent="umhTwzKay9UNLT2Jsbxd-204" source="umhTwzKay9UNLT2Jsbxd-194" target="umhTwzKay9UNLT2Jsbxd-195" edge="1">
          <mxGeometry width="50" height="50" relative="1" as="geometry">
            <mxPoint x="192.5" y="84" as="sourcePoint" />
            <mxPoint x="242.5" y="34" as="targetPoint" />
          </mxGeometry>
        </mxCell>
        <mxCell id="umhTwzKay9UNLT2Jsbxd-205" value="ProtocolHandler" style="text;html=1;align=center;verticalAlign=middle;whiteSpace=wrap;rounded=0;fontFamily=Helvetica;fontSize=12;fontColor=default;autosize=1;" parent="umhTwzKay9UNLT2Jsbxd-204" vertex="1">
          <mxGeometry y="40" width="110" height="30" as="geometry" />
        </mxCell>
        <mxCell id="umhTwzKay9UNLT2Jsbxd-57" style="edgeStyle=entityRelationEdgeStyle;rounded=0;orthogonalLoop=1;jettySize=auto;html=1;startArrow=none;endArrow=none;segment=10;curved=1;sourcePerimeterSpacing=0;targetPerimeterSpacing=0;exitX=1;exitY=0.25;exitDx=0;exitDy=0;entryX=0;entryY=0.5;entryDx=0;entryDy=0;fontFamily=Helvetica;fontSize=12;fontColor=default;autosize=1;" parent="1" source="umhTwzKay9UNLT2Jsbxd-47" target="umhTwzKay9UNLT2Jsbxd-52" edge="1" visible="0">
          <mxGeometry relative="1" as="geometry" />
        </mxCell>
        <mxCell id="umhTwzKay9UNLT2Jsbxd-58" style="edgeStyle=entityRelationEdgeStyle;rounded=0;orthogonalLoop=1;jettySize=auto;html=1;startArrow=none;endArrow=none;segment=10;curved=1;sourcePerimeterSpacing=0;targetPerimeterSpacing=0;exitX=1;exitY=0.5;exitDx=0;exitDy=0;fontFamily=Helvetica;fontSize=12;fontColor=default;autosize=1;" parent="1" source="umhTwzKay9UNLT2Jsbxd-47" target="umhTwzKay9UNLT2Jsbxd-55" edge="1" visible="0">
          <mxGeometry relative="1" as="geometry" />
        </mxCell>
        <mxCell id="umhTwzKay9UNLT2Jsbxd-59" style="edgeStyle=entityRelationEdgeStyle;rounded=0;orthogonalLoop=1;jettySize=auto;html=1;startArrow=none;endArrow=none;segment=10;curved=1;sourcePerimeterSpacing=0;targetPerimeterSpacing=0;exitX=1;exitY=0.75;exitDx=0;exitDy=0;entryX=0;entryY=0.5;entryDx=0;entryDy=0;fontFamily=Helvetica;fontSize=12;fontColor=default;autosize=1;" parent="1" source="umhTwzKay9UNLT2Jsbxd-47" target="umhTwzKay9UNLT2Jsbxd-56" edge="1" visible="0">
          <mxGeometry relative="1" as="geometry" />
        </mxCell>
        <mxCell id="umhTwzKay9UNLT2Jsbxd-52" value="webapps文件夹下放置web项目" style="whiteSpace=wrap;html=1;rounded=1;arcSize=50;align=center;verticalAlign=middle;strokeWidth=1;autosize=1;spacing=4;treeFolding=1;treeMoving=1;newEdgeStyle={&quot;edgeStyle&quot;:&quot;entityRelationEdgeStyle&quot;,&quot;startArrow&quot;:&quot;none&quot;,&quot;endArrow&quot;:&quot;none&quot;,&quot;segment&quot;:10,&quot;curved&quot;:1,&quot;sourcePerimeterSpacing&quot;:0,&quot;targetPerimeterSpacing&quot;:0};container=0;" parent="1" vertex="1" visible="0">
          <mxGeometry x="270" y="330" width="210" height="30" as="geometry" />
        </mxCell>
        <mxCell id="umhTwzKay9UNLT2Jsbxd-55" value="server.xml Context标签&lt;div&gt;&amp;lt;Context docBase=&quot;/path_to_web_project&quot; path=&quot;/mvc&quot; reloadable=&quot;true&quot; /&amp;gt;&lt;/div&gt;" style="whiteSpace=wrap;html=1;rounded=1;arcSize=50;align=center;verticalAlign=middle;strokeWidth=1;autosize=1;spacing=4;treeFolding=1;treeMoving=1;newEdgeStyle={&quot;edgeStyle&quot;:&quot;entityRelationEdgeStyle&quot;,&quot;startArrow&quot;:&quot;none&quot;,&quot;endArrow&quot;:&quot;none&quot;,&quot;segment&quot;:10,&quot;curved&quot;:1,&quot;sourcePerimeterSpacing&quot;:0,&quot;targetPerimeterSpacing&quot;:0};container=0;" parent="1" vertex="1" visible="0">
          <mxGeometry x="270" y="370" width="450" height="50" as="geometry" />
        </mxCell>
        <mxCell id="umhTwzKay9UNLT2Jsbxd-56" value="$CATALINA_BASE/conf/[enginename]/[hostname]/创建xml文件, 文件名即为路径" style="whiteSpace=wrap;html=1;rounded=1;arcSize=50;align=center;verticalAlign=middle;strokeWidth=1;autosize=1;spacing=4;treeFolding=1;treeMoving=1;newEdgeStyle={&quot;edgeStyle&quot;:&quot;entityRelationEdgeStyle&quot;,&quot;startArrow&quot;:&quot;none&quot;,&quot;endArrow&quot;:&quot;none&quot;,&quot;segment&quot;:10,&quot;curved&quot;:1,&quot;sourcePerimeterSpacing&quot;:0,&quot;targetPerimeterSpacing&quot;:0};" parent="1" vertex="1" visible="0">
          <mxGeometry x="270" y="440" width="470" height="30" as="geometry" />
        </mxCell>
        <mxCell id="umhTwzKay9UNLT2Jsbxd-85" style="edgeStyle=entityRelationEdgeStyle;rounded=0;orthogonalLoop=1;jettySize=auto;html=1;startArrow=none;endArrow=none;segment=10;curved=1;sourcePerimeterSpacing=0;targetPerimeterSpacing=0;exitX=1;exitY=0.5;exitDx=0;exitDy=0;fontFamily=Helvetica;fontSize=12;fontColor=default;autosize=1;entryX=0;entryY=0.5;entryDx=0;entryDy=0;" parent="1" source="umhTwzKay9UNLT2Jsbxd-62" target="umhTwzKay9UNLT2Jsbxd-89" edge="1">
          <mxGeometry relative="1" as="geometry">
            <mxPoint x="520" y="530" as="targetPoint" />
          </mxGeometry>
        </mxCell>
        <mxCell id="umhTwzKay9UNLT2Jsbxd-62" value="tomcat整体架构" style="whiteSpace=wrap;html=1;rounded=1;arcSize=50;align=center;verticalAlign=middle;strokeWidth=1;autosize=1;spacing=4;treeFolding=1;treeMoving=1;newEdgeStyle={&quot;edgeStyle&quot;:&quot;entityRelationEdgeStyle&quot;,&quot;startArrow&quot;:&quot;none&quot;,&quot;endArrow&quot;:&quot;none&quot;,&quot;segment&quot;:10,&quot;curved&quot;:1,&quot;sourcePerimeterSpacing&quot;:0,&quot;targetPerimeterSpacing&quot;:0};" parent="1" vertex="1">
          <mxGeometry x="320" y="555" width="130" height="30" as="geometry" />
        </mxCell>
        <mxCell id="umhTwzKay9UNLT2Jsbxd-88" value="Connector" style="whiteSpace=wrap;html=1;rounded=1;arcSize=50;align=center;verticalAlign=middle;strokeWidth=1;autosize=1;spacing=4;treeFolding=1;treeMoving=1;newEdgeStyle={&quot;edgeStyle&quot;:&quot;entityRelationEdgeStyle&quot;,&quot;startArrow&quot;:&quot;none&quot;,&quot;endArrow&quot;:&quot;none&quot;,&quot;segment&quot;:10,&quot;curved&quot;:1,&quot;sourcePerimeterSpacing&quot;:0,&quot;targetPerimeterSpacing&quot;:0};" parent="1" vertex="1">
          <mxGeometry x="760" y="525" width="100" height="30" as="geometry" />
        </mxCell>
        <mxCell id="umhTwzKay9UNLT2Jsbxd-93" style="edgeStyle=entityRelationEdgeStyle;rounded=0;orthogonalLoop=1;jettySize=auto;html=1;startArrow=none;endArrow=none;segment=10;curved=1;sourcePerimeterSpacing=0;targetPerimeterSpacing=0;exitX=1;exitY=0.5;exitDx=0;exitDy=0;entryX=0;entryY=0.5;entryDx=0;entryDy=0;fontFamily=Helvetica;fontSize=12;fontColor=default;autosize=1;" parent="1" source="umhTwzKay9UNLT2Jsbxd-89" target="umhTwzKay9UNLT2Jsbxd-90" edge="1">
          <mxGeometry relative="1" as="geometry" />
        </mxCell>
        <mxCell id="umhTwzKay9UNLT2Jsbxd-95" style="edgeStyle=entityRelationEdgeStyle;rounded=0;orthogonalLoop=1;jettySize=auto;html=1;startArrow=none;endArrow=none;segment=10;curved=1;sourcePerimeterSpacing=0;targetPerimeterSpacing=0;exitX=1;exitY=0.5;exitDx=0;exitDy=0;entryX=0;entryY=0.5;entryDx=0;entryDy=0;fontFamily=Helvetica;fontSize=12;fontColor=default;autosize=1;" parent="1" source="umhTwzKay9UNLT2Jsbxd-89" target="umhTwzKay9UNLT2Jsbxd-94" edge="1">
          <mxGeometry relative="1" as="geometry" />
        </mxCell>
        <mxCell id="umhTwzKay9UNLT2Jsbxd-97" style="edgeStyle=entityRelationEdgeStyle;rounded=0;orthogonalLoop=1;jettySize=auto;html=1;startArrow=none;endArrow=none;segment=10;curved=1;sourcePerimeterSpacing=0;targetPerimeterSpacing=0;exitX=1;exitY=0.5;exitDx=0;exitDy=0;entryX=0;entryY=0.5;entryDx=0;entryDy=0;fontFamily=Helvetica;fontSize=12;fontColor=default;autosize=1;" parent="1" source="umhTwzKay9UNLT2Jsbxd-89" target="umhTwzKay9UNLT2Jsbxd-96" edge="1">
          <mxGeometry relative="1" as="geometry" />
        </mxCell>
        <mxCell id="umhTwzKay9UNLT2Jsbxd-89" value="Server" style="whiteSpace=wrap;html=1;rounded=1;arcSize=50;align=center;verticalAlign=middle;strokeWidth=1;autosize=1;spacing=4;treeFolding=1;treeMoving=1;newEdgeStyle={&quot;edgeStyle&quot;:&quot;entityRelationEdgeStyle&quot;,&quot;startArrow&quot;:&quot;none&quot;,&quot;endArrow&quot;:&quot;none&quot;,&quot;segment&quot;:10,&quot;curved&quot;:1,&quot;sourcePerimeterSpacing&quot;:0,&quot;targetPerimeterSpacing&quot;:0};" parent="1" vertex="1">
          <mxGeometry x="500" y="555" width="80" height="30" as="geometry" />
        </mxCell>
        <mxCell id="umhTwzKay9UNLT2Jsbxd-99" style="edgeStyle=entityRelationEdgeStyle;rounded=0;orthogonalLoop=1;jettySize=auto;html=1;startArrow=none;endArrow=none;segment=10;curved=1;sourcePerimeterSpacing=0;targetPerimeterSpacing=0;exitX=1;exitY=0.5;exitDx=0;exitDy=0;entryX=0;entryY=0.5;entryDx=0;entryDy=0;fontFamily=Helvetica;fontSize=12;fontColor=default;autosize=1;" parent="1" source="umhTwzKay9UNLT2Jsbxd-90" target="umhTwzKay9UNLT2Jsbxd-88" edge="1">
          <mxGeometry relative="1" as="geometry">
            <mxPoint x="735" y="555" as="targetPoint" />
          </mxGeometry>
        </mxCell>
        <mxCell id="umhTwzKay9UNLT2Jsbxd-100" style="edgeStyle=entityRelationEdgeStyle;rounded=0;orthogonalLoop=1;jettySize=auto;html=1;startArrow=none;endArrow=none;segment=10;curved=1;sourcePerimeterSpacing=0;targetPerimeterSpacing=0;exitX=1;exitY=0.5;exitDx=0;exitDy=0;entryX=0;entryY=0.5;entryDx=0;entryDy=0;fontFamily=Helvetica;fontSize=12;fontColor=default;autosize=1;" parent="1" source="umhTwzKay9UNLT2Jsbxd-90" target="umhTwzKay9UNLT2Jsbxd-91" edge="1">
          <mxGeometry relative="1" as="geometry">
            <mxPoint x="730" y="600" as="targetPoint" />
          </mxGeometry>
        </mxCell>
        <mxCell id="umhTwzKay9UNLT2Jsbxd-101" style="edgeStyle=entityRelationEdgeStyle;rounded=0;orthogonalLoop=1;jettySize=auto;html=1;startArrow=none;endArrow=none;segment=10;curved=1;sourcePerimeterSpacing=0;targetPerimeterSpacing=0;exitX=1;exitY=0.5;exitDx=0;exitDy=0;entryX=0;entryY=0.5;entryDx=0;entryDy=0;fontFamily=Helvetica;fontSize=12;fontColor=default;autosize=1;" parent="1" source="umhTwzKay9UNLT2Jsbxd-90" target="umhTwzKay9UNLT2Jsbxd-92" edge="1">
          <mxGeometry relative="1" as="geometry" />
        </mxCell>
        <mxCell id="umhTwzKay9UNLT2Jsbxd-105" style="edgeStyle=entityRelationEdgeStyle;rounded=0;orthogonalLoop=1;jettySize=auto;html=1;startArrow=none;endArrow=none;segment=10;curved=1;sourcePerimeterSpacing=0;targetPerimeterSpacing=0;exitX=1;exitY=0.5;exitDx=0;exitDy=0;entryX=0;entryY=0.5;entryDx=0;entryDy=0;fontFamily=Helvetica;fontSize=12;fontColor=default;autosize=1;" parent="1" source="umhTwzKay9UNLT2Jsbxd-90" target="umhTwzKay9UNLT2Jsbxd-102" edge="1">
          <mxGeometry relative="1" as="geometry" />
        </mxCell>
        <mxCell id="umhTwzKay9UNLT2Jsbxd-106" style="edgeStyle=entityRelationEdgeStyle;rounded=0;orthogonalLoop=1;jettySize=auto;html=1;startArrow=none;endArrow=none;segment=10;curved=1;sourcePerimeterSpacing=0;targetPerimeterSpacing=0;exitX=1;exitY=0.5;exitDx=0;exitDy=0;entryX=0;entryY=0.5;entryDx=0;entryDy=0;fontFamily=Helvetica;fontSize=12;fontColor=default;autosize=1;" parent="1" source="umhTwzKay9UNLT2Jsbxd-90" target="umhTwzKay9UNLT2Jsbxd-103" edge="1">
          <mxGeometry relative="1" as="geometry" />
        </mxCell>
        <mxCell id="umhTwzKay9UNLT2Jsbxd-107" style="edgeStyle=entityRelationEdgeStyle;rounded=0;orthogonalLoop=1;jettySize=auto;html=1;startArrow=none;endArrow=none;segment=10;curved=1;sourcePerimeterSpacing=0;targetPerimeterSpacing=0;exitX=1;exitY=0.5;exitDx=0;exitDy=0;entryX=0;entryY=0.5;entryDx=0;entryDy=0;fontFamily=Helvetica;fontSize=12;fontColor=default;autosize=1;" parent="1" source="umhTwzKay9UNLT2Jsbxd-90" target="umhTwzKay9UNLT2Jsbxd-104" edge="1">
          <mxGeometry relative="1" as="geometry" />
        </mxCell>
        <mxCell id="umhTwzKay9UNLT2Jsbxd-90" value="Service" style="whiteSpace=wrap;html=1;rounded=1;arcSize=50;align=center;verticalAlign=middle;strokeWidth=1;autosize=1;spacing=4;treeFolding=1;treeMoving=1;newEdgeStyle={&quot;edgeStyle&quot;:&quot;entityRelationEdgeStyle&quot;,&quot;startArrow&quot;:&quot;none&quot;,&quot;endArrow&quot;:&quot;none&quot;,&quot;segment&quot;:10,&quot;curved&quot;:1,&quot;sourcePerimeterSpacing&quot;:0,&quot;targetPerimeterSpacing&quot;:0};" parent="1" vertex="1">
          <mxGeometry x="620" y="555" width="80" height="30" as="geometry" />
        </mxCell>
        <mxCell id="umhTwzKay9UNLT2Jsbxd-91" value="Executor" style="whiteSpace=wrap;html=1;rounded=1;arcSize=50;align=center;verticalAlign=middle;strokeWidth=1;autosize=1;spacing=4;treeFolding=1;treeMoving=1;newEdgeStyle={&quot;edgeStyle&quot;:&quot;entityRelationEdgeStyle&quot;,&quot;startArrow&quot;:&quot;none&quot;,&quot;endArrow&quot;:&quot;none&quot;,&quot;segment&quot;:10,&quot;curved&quot;:1,&quot;sourcePerimeterSpacing&quot;:0,&quot;targetPerimeterSpacing&quot;:0};" parent="1" vertex="1">
          <mxGeometry x="765" y="570" width="90" height="30" as="geometry" />
        </mxCell>
        <mxCell id="umhTwzKay9UNLT2Jsbxd-92" value="Engine" style="whiteSpace=wrap;html=1;rounded=1;arcSize=50;align=center;verticalAlign=middle;strokeWidth=1;autosize=1;spacing=4;treeFolding=1;treeMoving=1;newEdgeStyle={&quot;edgeStyle&quot;:&quot;entityRelationEdgeStyle&quot;,&quot;startArrow&quot;:&quot;none&quot;,&quot;endArrow&quot;:&quot;none&quot;,&quot;segment&quot;:10,&quot;curved&quot;:1,&quot;sourcePerimeterSpacing&quot;:0,&quot;targetPerimeterSpacing&quot;:0};" parent="1" vertex="1">
          <mxGeometry x="770" y="610" width="80" height="30" as="geometry" />
        </mxCell>
        <mxCell id="umhTwzKay9UNLT2Jsbxd-94" value="Service" style="whiteSpace=wrap;html=1;rounded=1;arcSize=50;align=center;verticalAlign=middle;strokeWidth=1;autosize=1;spacing=4;treeFolding=1;treeMoving=1;newEdgeStyle={&quot;edgeStyle&quot;:&quot;entityRelationEdgeStyle&quot;,&quot;startArrow&quot;:&quot;none&quot;,&quot;endArrow&quot;:&quot;none&quot;,&quot;segment&quot;:10,&quot;curved&quot;:1,&quot;sourcePerimeterSpacing&quot;:0,&quot;targetPerimeterSpacing&quot;:0};" parent="1" vertex="1">
          <mxGeometry x="620" y="600" width="80" height="30" as="geometry" />
        </mxCell>
        <mxCell id="umhTwzKay9UNLT2Jsbxd-96" value="Service" style="whiteSpace=wrap;html=1;rounded=1;arcSize=50;align=center;verticalAlign=middle;strokeWidth=1;autosize=1;spacing=4;treeFolding=1;treeMoving=1;newEdgeStyle={&quot;edgeStyle&quot;:&quot;entityRelationEdgeStyle&quot;,&quot;startArrow&quot;:&quot;none&quot;,&quot;endArrow&quot;:&quot;none&quot;,&quot;segment&quot;:10,&quot;curved&quot;:1,&quot;sourcePerimeterSpacing&quot;:0,&quot;targetPerimeterSpacing&quot;:0};" parent="1" vertex="1">
          <mxGeometry x="620" y="515" width="80" height="30" as="geometry" />
        </mxCell>
        <mxCell id="umhTwzKay9UNLT2Jsbxd-102" value="Host" style="whiteSpace=wrap;html=1;rounded=1;arcSize=50;align=center;verticalAlign=middle;strokeWidth=1;autosize=1;spacing=4;treeFolding=1;treeMoving=1;newEdgeStyle={&quot;edgeStyle&quot;:&quot;entityRelationEdgeStyle&quot;,&quot;startArrow&quot;:&quot;none&quot;,&quot;endArrow&quot;:&quot;none&quot;,&quot;segment&quot;:10,&quot;curved&quot;:1,&quot;sourcePerimeterSpacing&quot;:0,&quot;targetPerimeterSpacing&quot;:0};" parent="1" vertex="1">
          <mxGeometry x="775" y="660" width="70" height="30" as="geometry" />
        </mxCell>
        <mxCell id="umhTwzKay9UNLT2Jsbxd-103" value="Context" style="whiteSpace=wrap;html=1;rounded=1;arcSize=50;align=center;verticalAlign=middle;strokeWidth=1;autosize=1;spacing=4;treeFolding=1;treeMoving=1;newEdgeStyle={&quot;edgeStyle&quot;:&quot;entityRelationEdgeStyle&quot;,&quot;startArrow&quot;:&quot;none&quot;,&quot;endArrow&quot;:&quot;none&quot;,&quot;segment&quot;:10,&quot;curved&quot;:1,&quot;sourcePerimeterSpacing&quot;:0,&quot;targetPerimeterSpacing&quot;:0};" parent="1" vertex="1">
          <mxGeometry x="775" y="720" width="90" height="30" as="geometry" />
        </mxCell>
        <mxCell id="umhTwzKay9UNLT2Jsbxd-104" value="Wrapper(Servlet)" style="whiteSpace=wrap;html=1;rounded=1;arcSize=50;align=center;verticalAlign=middle;strokeWidth=1;autosize=1;spacing=4;treeFolding=1;treeMoving=1;newEdgeStyle={&quot;edgeStyle&quot;:&quot;entityRelationEdgeStyle&quot;,&quot;startArrow&quot;:&quot;none&quot;,&quot;endArrow&quot;:&quot;none&quot;,&quot;segment&quot;:10,&quot;curved&quot;:1,&quot;sourcePerimeterSpacing&quot;:0,&quot;targetPerimeterSpacing&quot;:0};" parent="1" vertex="1">
          <mxGeometry x="755" y="770" width="140" height="30" as="geometry" />
        </mxCell>
        <mxCell id="umhTwzKay9UNLT2Jsbxd-119" style="edgeStyle=orthogonalEdgeStyle;rounded=0;orthogonalLoop=1;jettySize=auto;html=1;exitX=0.1;exitY=0.5;exitDx=0;exitDy=0;exitPerimeter=0;entryX=0;entryY=0.5;entryDx=0;entryDy=0;fontFamily=Helvetica;fontSize=12;fontColor=default;autosize=1;" parent="1" source="umhTwzKay9UNLT2Jsbxd-109" target="umhTwzKay9UNLT2Jsbxd-110" edge="1">
          <mxGeometry relative="1" as="geometry" />
        </mxCell>
        <mxCell id="umhTwzKay9UNLT2Jsbxd-109" value="" style="shape=curlyBracket;whiteSpace=wrap;html=1;rounded=1;flipH=1;labelPosition=right;verticalLabelPosition=middle;align=left;verticalAlign=middle;strokeColor=default;strokeWidth=1;spacing=4;arcSize=50;fontFamily=Helvetica;fontSize=12;fontColor=default;autosize=1;fillColor=default;" parent="1" vertex="1">
          <mxGeometry x="895" y="610" width="55" height="180" as="geometry" />
        </mxCell>
        <mxCell id="umhTwzKay9UNLT2Jsbxd-110" value="Servlet 容器&lt;div&gt;Engine-&amp;gt;Host-&amp;gt;Context-&amp;gt;Wrapper 为父子关系&lt;/div&gt;" style="whiteSpace=wrap;html=1;rounded=1;strokeColor=default;strokeWidth=1;align=center;verticalAlign=middle;spacing=4;arcSize=50;fontFamily=Helvetica;fontSize=12;fontColor=default;autosize=1;fillColor=default;" parent="1" vertex="1">
          <mxGeometry x="950" y="675" width="270" height="50" as="geometry" />
        </mxCell>
        <mxCell id="umhTwzKay9UNLT2Jsbxd-114" value="线程池, 为Service中的所有组件提供线程服务" style="text;html=1;align=center;verticalAlign=middle;resizable=0;points=[];autosize=1;strokeColor=none;fillColor=none;fontFamily=Helvetica;fontSize=12;fontColor=default;" parent="1" vertex="1">
          <mxGeometry x="900" y="569" width="260" height="30" as="geometry" />
        </mxCell>
        <mxCell id="umhTwzKay9UNLT2Jsbxd-116" style="edgeStyle=entityRelationEdgeStyle;rounded=0;orthogonalLoop=1;jettySize=auto;html=1;startArrow=none;endArrow=none;segment=10;curved=1;sourcePerimeterSpacing=0;targetPerimeterSpacing=0;exitX=1;exitY=0.5;exitDx=0;exitDy=0;entryX=0;entryY=0.408;entryDx=0;entryDy=0;entryPerimeter=0;fontFamily=Helvetica;fontSize=12;fontColor=default;autosize=1;" parent="1" source="umhTwzKay9UNLT2Jsbxd-91" target="umhTwzKay9UNLT2Jsbxd-114" edge="1">
          <mxGeometry relative="1" as="geometry" />
        </mxCell>
        <mxCell id="umhTwzKay9UNLT2Jsbxd-117" value="连接器为Servlet容器屏蔽了不同的应用层协议和I/O模型,&lt;div&gt;无论是HTTP还是AJP, 在容器中获取的都是一个ServletRequest 对象&lt;/div&gt;" style="text;html=1;align=center;verticalAlign=middle;resizable=0;points=[];autosize=1;strokeColor=none;fillColor=none;fontFamily=Helvetica;fontSize=12;fontColor=default;" parent="1" vertex="1">
          <mxGeometry x="895" y="510" width="380" height="40" as="geometry" />
        </mxCell>
        <mxCell id="umhTwzKay9UNLT2Jsbxd-118" style="edgeStyle=entityRelationEdgeStyle;rounded=0;orthogonalLoop=1;jettySize=auto;html=1;startArrow=none;endArrow=none;segment=10;curved=1;sourcePerimeterSpacing=0;targetPerimeterSpacing=0;exitX=1;exitY=0.5;exitDx=0;exitDy=0;entryX=0.005;entryY=0.535;entryDx=0;entryDy=0;entryPerimeter=0;fontFamily=Helvetica;fontSize=12;fontColor=default;autosize=1;" parent="1" source="umhTwzKay9UNLT2Jsbxd-88" target="umhTwzKay9UNLT2Jsbxd-117" edge="1">
          <mxGeometry relative="1" as="geometry" />
        </mxCell>
        <mxCell id="umhTwzKay9UNLT2Jsbxd-120" style="edgeStyle=entityRelationEdgeStyle;rounded=0;orthogonalLoop=1;jettySize=auto;html=1;startArrow=none;endArrow=none;segment=10;curved=1;sourcePerimeterSpacing=0;targetPerimeterSpacing=0;exitX=1;exitY=0.5;exitDx=0;exitDy=0;entryX=0.951;entryY=0.016;entryDx=0;entryDy=0;entryPerimeter=0;fontFamily=Helvetica;fontSize=12;fontColor=default;autosize=1;" parent="1" source="umhTwzKay9UNLT2Jsbxd-92" target="umhTwzKay9UNLT2Jsbxd-109" edge="1">
          <mxGeometry relative="1" as="geometry" />
        </mxCell>
        <mxCell id="umhTwzKay9UNLT2Jsbxd-121" style="edgeStyle=entityRelationEdgeStyle;rounded=0;orthogonalLoop=1;jettySize=auto;html=1;startArrow=none;endArrow=none;segment=10;curved=1;sourcePerimeterSpacing=0;targetPerimeterSpacing=0;exitX=0.25;exitY=1;exitDx=0;exitDy=0;entryX=0.75;entryY=0;entryDx=0;entryDy=0;fontFamily=Helvetica;fontSize=12;fontColor=default;autosize=1;" parent="1" source="umhTwzKay9UNLT2Jsbxd-4" target="umhTwzKay9UNLT2Jsbxd-62" edge="1">
          <mxGeometry relative="1" as="geometry" />
        </mxCell>
        <mxCell id="umhTwzKay9UNLT2Jsbxd-147" value="" style="edgeStyle=orthogonalEdgeStyle;rounded=0;orthogonalLoop=1;jettySize=auto;html=1;fontFamily=Helvetica;fontSize=12;fontColor=default;autosize=1;" parent="1" source="umhTwzKay9UNLT2Jsbxd-144" target="umhTwzKay9UNLT2Jsbxd-146" edge="1" visible="0">
          <mxGeometry relative="1" as="geometry" />
        </mxCell>
        <mxCell id="umhTwzKay9UNLT2Jsbxd-144" value="请求" style="whiteSpace=wrap;html=1;rounded=1;strokeWidth=1;spacing=4;arcSize=50;autosize=1;" parent="1" vertex="1" visible="0">
          <mxGeometry x="715" y="350" width="50" height="30" as="geometry" />
        </mxCell>
        <mxCell id="umhTwzKay9UNLT2Jsbxd-149" value="" style="edgeStyle=orthogonalEdgeStyle;rounded=0;orthogonalLoop=1;jettySize=auto;html=1;fontFamily=Helvetica;fontSize=12;fontColor=default;autosize=1;" parent="1" source="umhTwzKay9UNLT2Jsbxd-146" target="umhTwzKay9UNLT2Jsbxd-148" edge="1" visible="0">
          <mxGeometry relative="1" as="geometry" />
        </mxCell>
        <mxCell id="umhTwzKay9UNLT2Jsbxd-146" value="Service" style="whiteSpace=wrap;html=1;rounded=1;strokeWidth=1;spacing=4;arcSize=50;autosize=1;" parent="1" vertex="1" visible="0">
          <mxGeometry x="820" y="350" width="70" height="30" as="geometry" />
        </mxCell>
        <mxCell id="umhTwzKay9UNLT2Jsbxd-188" style="edgeStyle=orthogonalEdgeStyle;rounded=0;orthogonalLoop=1;jettySize=auto;html=1;exitX=1;exitY=0.5;exitDx=0;exitDy=0;entryX=0;entryY=0.5;entryDx=0;entryDy=0;fontFamily=Helvetica;fontSize=12;fontColor=default;autosize=1;" parent="1" source="umhTwzKay9UNLT2Jsbxd-148" target="umhTwzKay9UNLT2Jsbxd-162" edge="1" visible="0">
          <mxGeometry relative="1" as="geometry" />
        </mxCell>
        <mxCell id="umhTwzKay9UNLT2Jsbxd-148" value="Connector" style="whiteSpace=wrap;html=1;rounded=1;strokeWidth=1;spacing=4;arcSize=50;autosize=1;" parent="1" vertex="1" visible="0">
          <mxGeometry x="940" y="350" width="80" height="30" as="geometry" />
        </mxCell>
        <mxCell id="umhTwzKay9UNLT2Jsbxd-168" style="edgeStyle=orthogonalEdgeStyle;rounded=0;orthogonalLoop=1;jettySize=auto;html=1;exitX=1;exitY=0.5;exitDx=0;exitDy=0;entryX=0;entryY=0.5;entryDx=0;entryDy=0;fontFamily=Helvetica;fontSize=12;fontColor=default;autosize=1;" parent="1" source="umhTwzKay9UNLT2Jsbxd-158" target="umhTwzKay9UNLT2Jsbxd-166" edge="1" visible="0">
          <mxGeometry relative="1" as="geometry" />
        </mxCell>
        <mxCell id="umhTwzKay9UNLT2Jsbxd-158" value="Host&lt;div&gt;localhost&lt;/div&gt;" style="whiteSpace=wrap;html=1;rounded=1;strokeColor=default;strokeWidth=1;align=center;verticalAlign=middle;spacing=4;arcSize=50;fontFamily=Helvetica;fontSize=12;fontColor=default;autosize=1;fillColor=default;" parent="1" vertex="1" visible="0">
          <mxGeometry x="1171" y="300" width="70" height="50" as="geometry" />
        </mxCell>
        <mxCell id="umhTwzKay9UNLT2Jsbxd-161" value="Host&lt;div&gt;xxx.com&lt;/div&gt;" style="whiteSpace=wrap;html=1;rounded=1;strokeColor=default;strokeWidth=1;align=center;verticalAlign=middle;spacing=4;arcSize=50;fontFamily=Helvetica;fontSize=12;fontColor=default;autosize=1;fillColor=default;" parent="1" vertex="1" visible="0">
          <mxGeometry x="1171" y="370" width="70" height="50" as="geometry" />
        </mxCell>
        <mxCell id="umhTwzKay9UNLT2Jsbxd-162" value="Engine" style="whiteSpace=wrap;html=1;rounded=1;strokeColor=default;strokeWidth=1;align=center;verticalAlign=middle;spacing=4;arcSize=50;fontFamily=Helvetica;fontSize=12;fontColor=default;autosize=1;fillColor=default;" parent="1" vertex="1" visible="0">
          <mxGeometry x="1060" y="350" width="60" height="30" as="geometry" />
        </mxCell>
        <mxCell id="umhTwzKay9UNLT2Jsbxd-164" style="edgeStyle=orthogonalEdgeStyle;rounded=0;orthogonalLoop=1;jettySize=auto;html=1;exitX=1;exitY=0.5;exitDx=0;exitDy=0;entryX=0.083;entryY=0.773;entryDx=0;entryDy=0;entryPerimeter=0;fontFamily=Helvetica;fontSize=12;fontColor=default;autosize=1;" parent="1" source="umhTwzKay9UNLT2Jsbxd-162" target="umhTwzKay9UNLT2Jsbxd-158" edge="1" visible="0">
          <mxGeometry relative="1" as="geometry" />
        </mxCell>
        <mxCell id="umhTwzKay9UNLT2Jsbxd-165" style="edgeStyle=orthogonalEdgeStyle;rounded=0;orthogonalLoop=1;jettySize=auto;html=1;exitX=1;exitY=0.5;exitDx=0;exitDy=0;entryX=0.021;entryY=0.657;entryDx=0;entryDy=0;entryPerimeter=0;fontFamily=Helvetica;fontSize=12;fontColor=default;autosize=1;" parent="1" source="umhTwzKay9UNLT2Jsbxd-162" target="umhTwzKay9UNLT2Jsbxd-161" edge="1" visible="0">
          <mxGeometry relative="1" as="geometry" />
        </mxCell>
        <mxCell id="umhTwzKay9UNLT2Jsbxd-172" style="edgeStyle=orthogonalEdgeStyle;rounded=0;orthogonalLoop=1;jettySize=auto;html=1;exitX=1;exitY=0.5;exitDx=0;exitDy=0;entryX=0;entryY=0.5;entryDx=0;entryDy=0;fontFamily=Helvetica;fontSize=12;fontColor=default;autosize=1;" parent="1" source="umhTwzKay9UNLT2Jsbxd-166" target="umhTwzKay9UNLT2Jsbxd-170" edge="1" visible="0">
          <mxGeometry relative="1" as="geometry" />
        </mxCell>
        <mxCell id="umhTwzKay9UNLT2Jsbxd-173" style="edgeStyle=orthogonalEdgeStyle;rounded=0;orthogonalLoop=1;jettySize=auto;html=1;exitX=1;exitY=0.5;exitDx=0;exitDy=0;entryX=0;entryY=0.75;entryDx=0;entryDy=0;fontFamily=Helvetica;fontSize=12;fontColor=default;autosize=1;" parent="1" source="umhTwzKay9UNLT2Jsbxd-166" target="umhTwzKay9UNLT2Jsbxd-171" edge="1" visible="0">
          <mxGeometry relative="1" as="geometry" />
        </mxCell>
        <mxCell id="umhTwzKay9UNLT2Jsbxd-166" value="Context&lt;div&gt;/mvc&lt;/div&gt;" style="whiteSpace=wrap;html=1;rounded=1;strokeColor=default;strokeWidth=1;align=center;verticalAlign=middle;spacing=4;arcSize=50;fontFamily=Helvetica;fontSize=12;fontColor=default;autosize=1;fillColor=default;" parent="1" vertex="1" visible="0">
          <mxGeometry x="1280" y="260" width="70" height="50" as="geometry" />
        </mxCell>
        <mxCell id="umhTwzKay9UNLT2Jsbxd-167" value="Context&lt;div&gt;/test&lt;/div&gt;" style="whiteSpace=wrap;html=1;rounded=1;strokeColor=default;strokeWidth=1;align=center;verticalAlign=middle;spacing=4;arcSize=50;fontFamily=Helvetica;fontSize=12;fontColor=default;autosize=1;fillColor=default;" parent="1" vertex="1" visible="0">
          <mxGeometry x="1280" y="330" width="70" height="50" as="geometry" />
        </mxCell>
        <mxCell id="umhTwzKay9UNLT2Jsbxd-169" style="edgeStyle=orthogonalEdgeStyle;rounded=0;orthogonalLoop=1;jettySize=auto;html=1;exitX=1;exitY=0.5;exitDx=0;exitDy=0;entryX=0;entryY=0.64;entryDx=0;entryDy=0;entryPerimeter=0;fontFamily=Helvetica;fontSize=12;fontColor=default;autosize=1;" parent="1" source="umhTwzKay9UNLT2Jsbxd-158" target="umhTwzKay9UNLT2Jsbxd-167" edge="1" visible="0">
          <mxGeometry relative="1" as="geometry" />
        </mxCell>
        <mxCell id="umhTwzKay9UNLT2Jsbxd-170" value="Wrapper&lt;div&gt;/hello&lt;/div&gt;" style="whiteSpace=wrap;html=1;rounded=1;strokeColor=default;strokeWidth=1;align=center;verticalAlign=middle;spacing=4;arcSize=50;fontFamily=Helvetica;fontSize=12;fontColor=default;autosize=1;fillColor=default;" parent="1" vertex="1" visible="0">
          <mxGeometry x="1390" y="205" width="70" height="50" as="geometry" />
        </mxCell>
        <mxCell id="umhTwzKay9UNLT2Jsbxd-171" value="Wrapper&lt;div&gt;/bye&lt;/div&gt;" style="whiteSpace=wrap;html=1;rounded=1;strokeColor=default;strokeWidth=1;align=center;verticalAlign=middle;spacing=4;arcSize=50;fontFamily=Helvetica;fontSize=12;fontColor=default;autosize=1;fillColor=default;" parent="1" vertex="1" visible="0">
          <mxGeometry x="1395" y="270" width="70" height="50" as="geometry" />
        </mxCell>
        <mxCell id="umhTwzKay9UNLT2Jsbxd-174" style="edgeStyle=entityRelationEdgeStyle;rounded=0;orthogonalLoop=1;jettySize=auto;html=1;startArrow=none;endArrow=none;segment=10;curved=1;sourcePerimeterSpacing=0;targetPerimeterSpacing=0;exitX=0.25;exitY=1;exitDx=0;exitDy=0;entryX=0;entryY=0.5;entryDx=0;entryDy=0;fontFamily=Helvetica;fontSize=12;fontColor=default;autosize=1;" parent="1" source="umhTwzKay9UNLT2Jsbxd-4" target="umhTwzKay9UNLT2Jsbxd-186" edge="1">
          <mxGeometry relative="1" as="geometry">
            <mxPoint x="500" y="365" as="targetPoint" />
          </mxGeometry>
        </mxCell>
        <mxCell id="umhTwzKay9UNLT2Jsbxd-2" value="什么是tomcat?" style="ellipse;whiteSpace=wrap;html=1;align=center;newEdgeStyle={&quot;edgeStyle&quot;:&quot;entityRelationEdgeStyle&quot;,&quot;startArrow&quot;:&quot;none&quot;,&quot;endArrow&quot;:&quot;none&quot;,&quot;segment&quot;:10,&quot;curved&quot;:1,&quot;sourcePerimeterSpacing&quot;:0,&quot;targetPerimeterSpacing&quot;:0};treeFolding=1;treeMoving=1;" parent="1" vertex="1">
          <mxGeometry x="120" y="240" width="130" height="52" as="geometry" />
        </mxCell>
        <mxCell id="umhTwzKay9UNLT2Jsbxd-44" style="edgeStyle=entityRelationEdgeStyle;rounded=0;orthogonalLoop=1;jettySize=auto;html=1;startArrow=none;endArrow=none;segment=10;curved=1;sourcePerimeterSpacing=0;targetPerimeterSpacing=0;exitX=0.25;exitY=0;exitDx=0;exitDy=0;entryX=0.5;entryY=1;entryDx=0;entryDy=0;" parent="1" source="umhTwzKay9UNLT2Jsbxd-4" target="umhTwzKay9UNLT2Jsbxd-11" edge="1">
          <mxGeometry relative="1" as="geometry" />
        </mxCell>
        <mxCell id="umhTwzKay9UNLT2Jsbxd-49" style="edgeStyle=entityRelationEdgeStyle;rounded=0;orthogonalLoop=1;jettySize=auto;html=1;startArrow=none;endArrow=none;segment=10;curved=1;sourcePerimeterSpacing=0;targetPerimeterSpacing=0;exitX=0.25;exitY=0;exitDx=0;exitDy=0;entryX=0.5;entryY=0;entryDx=0;entryDy=0;" parent="1" source="umhTwzKay9UNLT2Jsbxd-4" target="umhTwzKay9UNLT2Jsbxd-38" edge="1">
          <mxGeometry relative="1" as="geometry">
            <Array as="points">
              <mxPoint x="310" y="-10" />
              <mxPoint x="360" y="-10" />
              <mxPoint x="130" y="130" />
            </Array>
          </mxGeometry>
        </mxCell>
        <mxCell id="umhTwzKay9UNLT2Jsbxd-60" style="edgeStyle=entityRelationEdgeStyle;rounded=0;orthogonalLoop=1;jettySize=auto;html=1;startArrow=none;endArrow=none;segment=10;curved=1;sourcePerimeterSpacing=0;targetPerimeterSpacing=0;exitX=0.25;exitY=1;exitDx=0;exitDy=0;entryX=0.5;entryY=0;entryDx=0;entryDy=0;fontFamily=Helvetica;fontSize=12;fontColor=default;autosize=1;" parent="1" source="umhTwzKay9UNLT2Jsbxd-4" target="umhTwzKay9UNLT2Jsbxd-47" edge="1">
          <mxGeometry relative="1" as="geometry" />
        </mxCell>
        <mxCell id="umhTwzKay9UNLT2Jsbxd-4" value="Http服务器+Servlet容器" style="whiteSpace=wrap;html=1;rounded=1;arcSize=50;align=center;verticalAlign=middle;strokeWidth=1;autosize=1;spacing=4;treeFolding=1;treeMoving=1;newEdgeStyle={&quot;edgeStyle&quot;:&quot;entityRelationEdgeStyle&quot;,&quot;startArrow&quot;:&quot;none&quot;,&quot;endArrow&quot;:&quot;none&quot;,&quot;segment&quot;:10,&quot;curved&quot;:1,&quot;sourcePerimeterSpacing&quot;:0,&quot;targetPerimeterSpacing&quot;:0};" parent="1" vertex="1">
          <mxGeometry x="315" y="251" width="245" height="30" as="geometry" />
        </mxCell>
        <mxCell id="umhTwzKay9UNLT2Jsbxd-5" value="" style="edgeStyle=entityRelationEdgeStyle;startArrow=none;endArrow=none;segment=10;curved=1;sourcePerimeterSpacing=0;targetPerimeterSpacing=0;rounded=0;exitX=1;exitY=0.5;exitDx=0;exitDy=0;" parent="1" source="umhTwzKay9UNLT2Jsbxd-2" target="umhTwzKay9UNLT2Jsbxd-4" edge="1">
          <mxGeometry relative="1" as="geometry">
            <mxPoint x="280" y="280" as="sourcePoint" />
            <Array as="points">
              <mxPoint x="260" y="262" />
            </Array>
          </mxGeometry>
        </mxCell>
        <mxCell id="umhTwzKay9UNLT2Jsbxd-11" value="" style="rounded=0;whiteSpace=wrap;html=1;container=1;" parent="1" vertex="1">
          <mxGeometry x="220" width="356" height="160" as="geometry" />
        </mxCell>
        <mxCell id="umhTwzKay9UNLT2Jsbxd-30" value="" style="group" parent="umhTwzKay9UNLT2Jsbxd-11" vertex="1" connectable="0">
          <mxGeometry width="356" height="160" as="geometry" />
        </mxCell>
        <mxCell id="umhTwzKay9UNLT2Jsbxd-12" value="Tomcat" style="text;html=1;align=center;verticalAlign=middle;whiteSpace=wrap;rounded=0;container=0;" parent="umhTwzKay9UNLT2Jsbxd-30" vertex="1">
          <mxGeometry width="94.51327433628319" height="48" as="geometry" />
        </mxCell>
        <mxCell id="umhTwzKay9UNLT2Jsbxd-14" value="Http服务器" style="ellipse;whiteSpace=wrap;html=1;container=0;" parent="umhTwzKay9UNLT2Jsbxd-30" vertex="1">
          <mxGeometry x="10.00353982300885" y="56" width="126.01769911504425" height="48" as="geometry" />
        </mxCell>
        <mxCell id="umhTwzKay9UNLT2Jsbxd-15" value="Servlet 容器" style="rounded=0;whiteSpace=wrap;html=1;container=0;" parent="umhTwzKay9UNLT2Jsbxd-30" vertex="1">
          <mxGeometry x="210" y="46" width="130.25" height="68" as="geometry" />
        </mxCell>
        <mxCell id="umhTwzKay9UNLT2Jsbxd-20" value="" style="shape=flexArrow;endArrow=classic;html=1;rounded=0;entryX=0.021;entryY=0.365;entryDx=0;entryDy=0;entryPerimeter=0;" parent="umhTwzKay9UNLT2Jsbxd-30" target="umhTwzKay9UNLT2Jsbxd-15" edge="1">
          <mxGeometry width="50" height="50" relative="1" as="geometry">
            <mxPoint x="140" y="70" as="sourcePoint" />
            <mxPoint x="180" y="20" as="targetPoint" />
          </mxGeometry>
        </mxCell>
        <mxCell id="umhTwzKay9UNLT2Jsbxd-21" value="" style="shape=flexArrow;endArrow=classic;html=1;rounded=0;entryX=0.021;entryY=0.365;entryDx=0;entryDy=0;entryPerimeter=0;exitX=0;exitY=0.75;exitDx=0;exitDy=0;" parent="umhTwzKay9UNLT2Jsbxd-30" source="umhTwzKay9UNLT2Jsbxd-15" edge="1">
          <mxGeometry width="50" height="50" relative="1" as="geometry">
            <mxPoint x="210.00074999999993" y="103.99599999999998" as="sourcePoint" />
            <mxPoint x="131.46000000000004" y="99.27999999999997" as="targetPoint" />
          </mxGeometry>
        </mxCell>
        <mxCell id="umhTwzKay9UNLT2Jsbxd-22" value="ServletRequest" style="text;html=1;align=center;verticalAlign=middle;whiteSpace=wrap;rounded=0;container=0;" parent="umhTwzKay9UNLT2Jsbxd-30" vertex="1">
          <mxGeometry x="136" y="27" width="60" height="30" as="geometry" />
        </mxCell>
        <mxCell id="umhTwzKay9UNLT2Jsbxd-23" value="ServletResponse" style="text;html=1;align=center;verticalAlign=middle;whiteSpace=wrap;rounded=0;container=0;" parent="umhTwzKay9UNLT2Jsbxd-30" vertex="1">
          <mxGeometry x="134" y="114" width="60" height="30" as="geometry" />
        </mxCell>
        <mxCell id="umhTwzKay9UNLT2Jsbxd-38" value="Sevlet目录结构" style="swimlane;fontStyle=0;childLayout=stackLayout;horizontal=1;startSize=26;fillColor=none;horizontalStack=0;resizeParent=1;resizeParentMax=0;resizeLast=0;collapsible=1;marginBottom=0;html=1;" parent="1" vertex="1">
          <mxGeometry x="-30" width="205" height="104" as="geometry">
            <mxRectangle x="-30" width="120" height="30" as="alternateBounds" />
          </mxGeometry>
        </mxCell>
        <mxCell id="umhTwzKay9UNLT2Jsbxd-39" value="bin: tomcat脚本, startup.sh" style="text;strokeColor=none;fillColor=none;align=left;verticalAlign=top;spacingLeft=4;spacingRight=4;overflow=hidden;rotatable=0;points=[[0,0.5],[1,0.5]];portConstraint=eastwest;whiteSpace=wrap;html=1;" parent="umhTwzKay9UNLT2Jsbxd-38" vertex="1">
          <mxGeometry y="26" width="205" height="26" as="geometry" />
        </mxCell>
        <mxCell id="umhTwzKay9UNLT2Jsbxd-40" value="conf: tomcat配置文件 server.xml" style="text;strokeColor=none;fillColor=none;align=left;verticalAlign=top;spacingLeft=4;spacingRight=4;overflow=hidden;rotatable=0;points=[[0,0.5],[1,0.5]];portConstraint=eastwest;whiteSpace=wrap;html=1;" parent="umhTwzKay9UNLT2Jsbxd-38" vertex="1">
          <mxGeometry y="52" width="205" height="26" as="geometry" />
        </mxCell>
        <mxCell id="umhTwzKay9UNLT2Jsbxd-41" value="lib: 公共类库" style="text;strokeColor=none;fillColor=none;align=left;verticalAlign=top;spacingLeft=4;spacingRight=4;overflow=hidden;rotatable=0;points=[[0,0.5],[1,0.5]];portConstraint=eastwest;whiteSpace=wrap;html=1;" parent="umhTwzKay9UNLT2Jsbxd-38" vertex="1">
          <mxGeometry y="78" width="205" height="26" as="geometry" />
        </mxCell>
        <mxCell id="umhTwzKay9UNLT2Jsbxd-47" value="tomcat部署web应用的三种方式" style="whiteSpace=wrap;html=1;rounded=1;arcSize=50;align=center;verticalAlign=middle;strokeWidth=1;autosize=1;spacing=4;treeFolding=1;treeMoving=1;newEdgeStyle={&quot;edgeStyle&quot;:&quot;entityRelationEdgeStyle&quot;,&quot;startArrow&quot;:&quot;none&quot;,&quot;endArrow&quot;:&quot;none&quot;,&quot;segment&quot;:10,&quot;curved&quot;:1,&quot;sourcePerimeterSpacing&quot;:0,&quot;targetPerimeterSpacing&quot;:0};" parent="1" vertex="1" collapsed="1">
          <mxGeometry x="10" y="370" width="210" height="30" as="geometry" />
        </mxCell>
        <mxCell id="umhTwzKay9UNLT2Jsbxd-182" style="edgeStyle=entityRelationEdgeStyle;rounded=0;orthogonalLoop=1;jettySize=auto;html=1;startArrow=none;endArrow=none;segment=10;curved=1;sourcePerimeterSpacing=0;targetPerimeterSpacing=0;exitX=1;exitY=0.5;exitDx=0;exitDy=0;entryX=0;entryY=0.5;entryDx=0;entryDy=0;fontFamily=Helvetica;fontSize=12;fontColor=default;autosize=1;" parent="1" source="umhTwzKay9UNLT2Jsbxd-178" target="umhTwzKay9UNLT2Jsbxd-181" edge="1">
          <mxGeometry relative="1" as="geometry" />
        </mxCell>
        <mxCell id="umhTwzKay9UNLT2Jsbxd-223" style="edgeStyle=entityRelationEdgeStyle;rounded=0;orthogonalLoop=1;jettySize=auto;html=1;startArrow=none;endArrow=none;segment=10;curved=1;sourcePerimeterSpacing=0;targetPerimeterSpacing=0;exitX=0.75;exitY=1;exitDx=0;exitDy=0;entryX=0;entryY=0.5;entryDx=0;entryDy=0;fontFamily=Helvetica;fontSize=12;fontColor=default;autosize=1;" parent="1" source="umhTwzKay9UNLT2Jsbxd-178" target="umhTwzKay9UNLT2Jsbxd-222" edge="1">
          <mxGeometry relative="1" as="geometry" />
        </mxCell>
        <mxCell id="umhTwzKay9UNLT2Jsbxd-229" style="edgeStyle=entityRelationEdgeStyle;rounded=0;orthogonalLoop=1;jettySize=auto;html=1;startArrow=none;endArrow=none;segment=10;curved=1;sourcePerimeterSpacing=0;targetPerimeterSpacing=0;exitX=0.75;exitY=0;exitDx=0;exitDy=0;entryX=0;entryY=0.5;entryDx=0;entryDy=0;fontFamily=Helvetica;fontSize=12;fontColor=default;autosize=1;" parent="1" source="umhTwzKay9UNLT2Jsbxd-178" target="umhTwzKay9UNLT2Jsbxd-228" edge="1">
          <mxGeometry relative="1" as="geometry" />
        </mxCell>
        <mxCell id="umhTwzKay9UNLT2Jsbxd-178" value="Tomcat结构设计&lt;div&gt;Tomcat 需要实现哪些功能?&lt;/div&gt;" style="whiteSpace=wrap;html=1;rounded=1;arcSize=50;align=center;verticalAlign=middle;strokeWidth=1;autosize=1;spacing=4;treeFolding=1;treeMoving=1;newEdgeStyle={&quot;edgeStyle&quot;:&quot;entityRelationEdgeStyle&quot;,&quot;startArrow&quot;:&quot;none&quot;,&quot;endArrow&quot;:&quot;none&quot;,&quot;segment&quot;:10,&quot;curved&quot;:1,&quot;sourcePerimeterSpacing&quot;:0,&quot;targetPerimeterSpacing&quot;:0};strokeColor=default;fontFamily=Helvetica;fontSize=12;fontColor=default;fillColor=default;" parent="1" vertex="1">
          <mxGeometry x="590" y="160" width="190" height="50" as="geometry" />
        </mxCell>
        <mxCell id="umhTwzKay9UNLT2Jsbxd-179" value="" style="edgeStyle=entityRelationEdgeStyle;startArrow=none;endArrow=none;segment=10;curved=1;sourcePerimeterSpacing=0;targetPerimeterSpacing=0;rounded=0;fontFamily=Helvetica;fontSize=12;fontColor=default;autosize=1;exitX=1;exitY=0.5;exitDx=0;exitDy=0;" parent="1" source="umhTwzKay9UNLT2Jsbxd-4" target="umhTwzKay9UNLT2Jsbxd-178" edge="1">
          <mxGeometry relative="1" as="geometry">
            <mxPoint x="680" y="192" as="sourcePoint" />
          </mxGeometry>
        </mxCell>
        <mxCell id="umhTwzKay9UNLT2Jsbxd-191" style="edgeStyle=entityRelationEdgeStyle;rounded=0;orthogonalLoop=1;jettySize=auto;html=1;startArrow=none;endArrow=none;segment=10;curved=1;sourcePerimeterSpacing=0;targetPerimeterSpacing=0;exitX=1;exitY=0.5;exitDx=0;exitDy=0;entryX=0;entryY=0.5;entryDx=0;entryDy=0;fontFamily=Helvetica;fontSize=12;fontColor=default;autosize=1;" parent="1" source="umhTwzKay9UNLT2Jsbxd-181" target="umhTwzKay9UNLT2Jsbxd-183" edge="1">
          <mxGeometry relative="1" as="geometry" />
        </mxCell>
        <mxCell id="umhTwzKay9UNLT2Jsbxd-192" style="edgeStyle=entityRelationEdgeStyle;rounded=0;orthogonalLoop=1;jettySize=auto;html=1;startArrow=none;endArrow=none;segment=10;curved=1;sourcePerimeterSpacing=0;targetPerimeterSpacing=0;exitX=1;exitY=0.5;exitDx=0;exitDy=0;entryX=0;entryY=0.5;entryDx=0;entryDy=0;fontFamily=Helvetica;fontSize=12;fontColor=default;autosize=1;" parent="1" source="umhTwzKay9UNLT2Jsbxd-181" target="umhTwzKay9UNLT2Jsbxd-189" edge="1">
          <mxGeometry relative="1" as="geometry" />
        </mxCell>
        <mxCell id="umhTwzKay9UNLT2Jsbxd-193" style="edgeStyle=entityRelationEdgeStyle;rounded=0;orthogonalLoop=1;jettySize=auto;html=1;startArrow=none;endArrow=none;segment=10;curved=1;sourcePerimeterSpacing=0;targetPerimeterSpacing=0;exitX=1;exitY=0.5;exitDx=0;exitDy=0;entryX=0;entryY=0.75;entryDx=0;entryDy=0;fontFamily=Helvetica;fontSize=12;fontColor=default;autosize=1;" parent="1" source="umhTwzKay9UNLT2Jsbxd-181" target="umhTwzKay9UNLT2Jsbxd-190" edge="1">
          <mxGeometry relative="1" as="geometry" />
        </mxCell>
        <mxCell id="umhTwzKay9UNLT2Jsbxd-181" value="监听网络端口&lt;div&gt;接受网络连接请求&lt;/div&gt;&lt;div&gt;读取请求网络字节流&lt;/div&gt;&lt;div&gt;根据具体应用层协议解析字节流,生成统一的Tomcat Request对象&lt;/div&gt;&lt;div&gt;将Tomcat Request对象转换为ServletRequest对象&lt;/div&gt;&lt;div&gt;调用Servlet容器得到ServletResponse&lt;/div&gt;&lt;div&gt;...&lt;/div&gt;" style="whiteSpace=wrap;html=1;rounded=1;arcSize=50;align=center;verticalAlign=middle;strokeWidth=1;autosize=1;spacing=4;treeFolding=1;treeMoving=1;newEdgeStyle={&quot;edgeStyle&quot;:&quot;entityRelationEdgeStyle&quot;,&quot;startArrow&quot;:&quot;none&quot;,&quot;endArrow&quot;:&quot;none&quot;,&quot;segment&quot;:10,&quot;curved&quot;:1,&quot;sourcePerimeterSpacing&quot;:0,&quot;targetPerimeterSpacing&quot;:0};strokeColor=default;fontFamily=Helvetica;fontSize=12;fontColor=default;fillColor=default;" parent="1" vertex="1">
          <mxGeometry x="800" y="125" width="390" height="120" as="geometry" />
        </mxCell>
        <mxCell id="umhTwzKay9UNLT2Jsbxd-206" style="edgeStyle=entityRelationEdgeStyle;rounded=0;orthogonalLoop=1;jettySize=auto;html=1;startArrow=none;endArrow=none;segment=10;curved=1;sourcePerimeterSpacing=0;targetPerimeterSpacing=0;exitX=1;exitY=0.5;exitDx=0;exitDy=0;entryX=0;entryY=1;entryDx=0;entryDy=0;fontFamily=Helvetica;fontSize=12;fontColor=default;autosize=1;" parent="1" source="umhTwzKay9UNLT2Jsbxd-183" target="umhTwzKay9UNLT2Jsbxd-205" edge="1">
          <mxGeometry relative="1" as="geometry" />
        </mxCell>
        <mxCell id="umhTwzKay9UNLT2Jsbxd-183" value="网络通信" style="whiteSpace=wrap;html=1;rounded=1;arcSize=50;align=center;verticalAlign=middle;strokeWidth=1;autosize=1;spacing=4;treeFolding=1;treeMoving=1;newEdgeStyle={&quot;edgeStyle&quot;:&quot;entityRelationEdgeStyle&quot;,&quot;startArrow&quot;:&quot;none&quot;,&quot;endArrow&quot;:&quot;none&quot;,&quot;segment&quot;:10,&quot;curved&quot;:1,&quot;sourcePerimeterSpacing&quot;:0,&quot;targetPerimeterSpacing&quot;:0};strokeColor=default;fontFamily=Helvetica;fontSize=12;fontColor=default;fillColor=default;" parent="1" vertex="1">
          <mxGeometry x="1245" y="86" width="90" height="30" as="geometry" />
        </mxCell>
        <mxCell id="umhTwzKay9UNLT2Jsbxd-187" style="edgeStyle=entityRelationEdgeStyle;rounded=0;orthogonalLoop=1;jettySize=auto;html=1;startArrow=none;endArrow=none;segment=10;curved=1;sourcePerimeterSpacing=0;targetPerimeterSpacing=0;exitX=1;exitY=0.5;exitDx=0;exitDy=0;entryX=0;entryY=0.5;entryDx=0;entryDy=0;fontFamily=Helvetica;fontSize=12;fontColor=default;autosize=1;" parent="1" source="umhTwzKay9UNLT2Jsbxd-186" target="umhTwzKay9UNLT2Jsbxd-144" edge="1" visible="0">
          <mxGeometry relative="1" as="geometry" />
        </mxCell>
        <mxCell id="umhTwzKay9UNLT2Jsbxd-186" value="Tomcat结构设计&lt;div&gt;Tomcat 需要实现哪些功能?&lt;/div&gt;" style="whiteSpace=wrap;html=1;rounded=1;arcSize=50;align=center;verticalAlign=middle;strokeWidth=1;autosize=1;spacing=4;treeFolding=1;treeMoving=1;newEdgeStyle={&quot;edgeStyle&quot;:&quot;entityRelationEdgeStyle&quot;,&quot;startArrow&quot;:&quot;none&quot;,&quot;endArrow&quot;:&quot;none&quot;,&quot;segment&quot;:10,&quot;curved&quot;:1,&quot;sourcePerimeterSpacing&quot;:0,&quot;targetPerimeterSpacing&quot;:0};strokeColor=default;fontFamily=Helvetica;fontSize=12;fontColor=default;fillColor=default;" parent="1" vertex="1" collapsed="1">
          <mxGeometry x="510" y="340" width="190" height="50" as="geometry" />
        </mxCell>
        <mxCell id="umhTwzKay9UNLT2Jsbxd-207" style="edgeStyle=entityRelationEdgeStyle;rounded=0;orthogonalLoop=1;jettySize=auto;html=1;startArrow=none;endArrow=none;segment=10;curved=1;sourcePerimeterSpacing=0;targetPerimeterSpacing=0;exitX=1;exitY=0.5;exitDx=0;exitDy=0;entryX=0;entryY=0.5;entryDx=0;entryDy=0;fontFamily=Helvetica;fontSize=12;fontColor=default;autosize=1;" parent="1" source="umhTwzKay9UNLT2Jsbxd-189" target="umhTwzKay9UNLT2Jsbxd-204" edge="1">
          <mxGeometry relative="1" as="geometry" />
        </mxCell>
        <mxCell id="umhTwzKay9UNLT2Jsbxd-189" value="协议解析" style="whiteSpace=wrap;html=1;rounded=1;arcSize=50;align=center;verticalAlign=middle;strokeWidth=1;autosize=1;spacing=4;treeFolding=1;treeMoving=1;newEdgeStyle={&quot;edgeStyle&quot;:&quot;entityRelationEdgeStyle&quot;,&quot;startArrow&quot;:&quot;none&quot;,&quot;endArrow&quot;:&quot;none&quot;,&quot;segment&quot;:10,&quot;curved&quot;:1,&quot;sourcePerimeterSpacing&quot;:0,&quot;targetPerimeterSpacing&quot;:0};strokeColor=default;fontFamily=Helvetica;fontSize=12;fontColor=default;fillColor=default;" parent="1" vertex="1">
          <mxGeometry x="1245" y="160" width="90" height="30" as="geometry" />
        </mxCell>
        <mxCell id="umhTwzKay9UNLT2Jsbxd-203" style="edgeStyle=entityRelationEdgeStyle;rounded=0;orthogonalLoop=1;jettySize=auto;html=1;startArrow=none;endArrow=none;segment=10;curved=1;sourcePerimeterSpacing=0;targetPerimeterSpacing=0;exitX=1;exitY=0.5;exitDx=0;exitDy=0;entryX=0;entryY=0.5;entryDx=0;entryDy=0;fontFamily=Helvetica;fontSize=12;fontColor=default;autosize=1;" parent="1" source="umhTwzKay9UNLT2Jsbxd-190" target="umhTwzKay9UNLT2Jsbxd-196" edge="1">
          <mxGeometry relative="1" as="geometry" />
        </mxCell>
        <mxCell id="umhTwzKay9UNLT2Jsbxd-190" value="对象转换" style="whiteSpace=wrap;html=1;rounded=1;arcSize=50;align=center;verticalAlign=middle;strokeWidth=1;autosize=1;spacing=4;treeFolding=1;treeMoving=1;newEdgeStyle={&quot;edgeStyle&quot;:&quot;entityRelationEdgeStyle&quot;,&quot;startArrow&quot;:&quot;none&quot;,&quot;endArrow&quot;:&quot;none&quot;,&quot;segment&quot;:10,&quot;curved&quot;:1,&quot;sourcePerimeterSpacing&quot;:0,&quot;targetPerimeterSpacing&quot;:0};strokeColor=default;fontFamily=Helvetica;fontSize=12;fontColor=default;fillColor=default;" parent="1" vertex="1">
          <mxGeometry x="1241" y="230" width="90" height="30" as="geometry" />
        </mxCell>
        <mxCell id="wXRTrByuDZVtQ4qVjIp_-10" style="edgeStyle=entityRelationEdgeStyle;rounded=0;orthogonalLoop=1;jettySize=auto;html=1;startArrow=none;endArrow=none;segment=10;curved=1;sourcePerimeterSpacing=0;targetPerimeterSpacing=0;exitX=1;exitY=0.5;exitDx=0;exitDy=0;" parent="1" source="umhTwzKay9UNLT2Jsbxd-196" target="wXRTrByuDZVtQ4qVjIp_-11" edge="1">
          <mxGeometry relative="1" as="geometry">
            <mxPoint x="1590" y="245.47619047619037" as="targetPoint" />
          </mxGeometry>
        </mxCell>
        <mxCell id="umhTwzKay9UNLT2Jsbxd-196" value="Adapter" style="whiteSpace=wrap;html=1;rounded=1;arcSize=50;align=center;verticalAlign=middle;strokeWidth=1;autosize=1;spacing=4;treeFolding=1;treeMoving=1;newEdgeStyle={&quot;edgeStyle&quot;:&quot;entityRelationEdgeStyle&quot;,&quot;startArrow&quot;:&quot;none&quot;,&quot;endArrow&quot;:&quot;none&quot;,&quot;segment&quot;:10,&quot;curved&quot;:1,&quot;sourcePerimeterSpacing&quot;:0,&quot;targetPerimeterSpacing&quot;:0};strokeColor=default;fontFamily=Helvetica;fontSize=12;fontColor=default;fillColor=default;" parent="1" vertex="1">
          <mxGeometry x="1420" y="230" width="90" height="30" as="geometry" />
        </mxCell>
        <mxCell id="umhTwzKay9UNLT2Jsbxd-200" value="" style="endArrow=classic;html=1;rounded=0;fontFamily=Helvetica;fontSize=12;fontColor=default;autosize=1;exitX=0.5;exitY=1;exitDx=0;exitDy=0;entryX=0.5;entryY=0;entryDx=0;entryDy=0;" parent="1" source="umhTwzKay9UNLT2Jsbxd-195" target="umhTwzKay9UNLT2Jsbxd-196" edge="1">
          <mxGeometry width="50" height="50" relative="1" as="geometry">
            <mxPoint x="1470" y="130" as="sourcePoint" />
            <mxPoint x="1470" y="174" as="targetPoint" />
          </mxGeometry>
        </mxCell>
        <mxCell id="umhTwzKay9UNLT2Jsbxd-213" style="edgeStyle=entityRelationEdgeStyle;rounded=0;orthogonalLoop=1;jettySize=auto;html=1;startArrow=none;endArrow=none;segment=10;curved=1;sourcePerimeterSpacing=0;targetPerimeterSpacing=0;exitX=1;exitY=0.25;exitDx=0;exitDy=0;entryX=0;entryY=0.5;entryDx=0;entryDy=0;fontFamily=Helvetica;fontSize=12;fontColor=default;autosize=1;" parent="1" source="umhTwzKay9UNLT2Jsbxd-210" target="umhTwzKay9UNLT2Jsbxd-211" edge="1">
          <mxGeometry relative="1" as="geometry" />
        </mxCell>
        <mxCell id="umhTwzKay9UNLT2Jsbxd-214" style="edgeStyle=entityRelationEdgeStyle;rounded=0;orthogonalLoop=1;jettySize=auto;html=1;startArrow=none;endArrow=none;segment=10;curved=1;sourcePerimeterSpacing=0;targetPerimeterSpacing=0;exitX=1;exitY=0.5;exitDx=0;exitDy=0;entryX=0;entryY=0.5;entryDx=0;entryDy=0;fontFamily=Helvetica;fontSize=12;fontColor=default;autosize=1;" parent="1" source="umhTwzKay9UNLT2Jsbxd-210" target="umhTwzKay9UNLT2Jsbxd-212" edge="1">
          <mxGeometry relative="1" as="geometry" />
        </mxCell>
        <mxCell id="umhTwzKay9UNLT2Jsbxd-210" value="AbstractEndpoint" style="whiteSpace=wrap;html=1;rounded=1;arcSize=50;align=center;verticalAlign=middle;strokeWidth=1;autosize=1;spacing=4;treeFolding=1;treeMoving=1;newEdgeStyle={&quot;edgeStyle&quot;:&quot;entityRelationEdgeStyle&quot;,&quot;startArrow&quot;:&quot;none&quot;,&quot;endArrow&quot;:&quot;none&quot;,&quot;segment&quot;:10,&quot;curved&quot;:1,&quot;sourcePerimeterSpacing&quot;:0,&quot;targetPerimeterSpacing&quot;:0};strokeColor=default;fontFamily=Helvetica;fontSize=12;fontColor=default;fillColor=default;" parent="1" vertex="1">
          <mxGeometry x="1710" y="56" width="140" height="30" as="geometry" />
        </mxCell>
        <mxCell id="umhTwzKay9UNLT2Jsbxd-211" value="Acceptor" style="whiteSpace=wrap;html=1;rounded=1;arcSize=50;align=center;verticalAlign=middle;strokeWidth=1;autosize=1;spacing=4;treeFolding=1;treeMoving=1;newEdgeStyle={&quot;edgeStyle&quot;:&quot;entityRelationEdgeStyle&quot;,&quot;startArrow&quot;:&quot;none&quot;,&quot;endArrow&quot;:&quot;none&quot;,&quot;segment&quot;:10,&quot;curved&quot;:1,&quot;sourcePerimeterSpacing&quot;:0,&quot;targetPerimeterSpacing&quot;:0};strokeColor=default;fontFamily=Helvetica;fontSize=12;fontColor=default;fillColor=default;" parent="1" vertex="1">
          <mxGeometry x="1925" y="30" width="90" height="30" as="geometry" />
        </mxCell>
        <mxCell id="umhTwzKay9UNLT2Jsbxd-212" value="SocketProcessor" style="whiteSpace=wrap;html=1;rounded=1;arcSize=50;align=center;verticalAlign=middle;strokeWidth=1;autosize=1;spacing=4;treeFolding=1;treeMoving=1;newEdgeStyle={&quot;edgeStyle&quot;:&quot;entityRelationEdgeStyle&quot;,&quot;startArrow&quot;:&quot;none&quot;,&quot;endArrow&quot;:&quot;none&quot;,&quot;segment&quot;:10,&quot;curved&quot;:1,&quot;sourcePerimeterSpacing&quot;:0,&quot;targetPerimeterSpacing&quot;:0};strokeColor=default;fontFamily=Helvetica;fontSize=12;fontColor=default;fillColor=default;" parent="1" vertex="1">
          <mxGeometry x="1890" y="95" width="140" height="30" as="geometry" />
        </mxCell>
        <mxCell id="umhTwzKay9UNLT2Jsbxd-217" value="监听Socket连接请求" style="text;html=1;align=center;verticalAlign=middle;resizable=0;points=[];autosize=1;strokeColor=none;fillColor=none;fontFamily=Helvetica;fontSize=12;fontColor=default;" parent="1" vertex="1">
          <mxGeometry x="2035" y="28" width="130" height="30" as="geometry" />
        </mxCell>
        <mxCell id="umhTwzKay9UNLT2Jsbxd-218" style="edgeStyle=entityRelationEdgeStyle;rounded=0;orthogonalLoop=1;jettySize=auto;html=1;startArrow=none;endArrow=none;segment=10;curved=1;sourcePerimeterSpacing=0;targetPerimeterSpacing=0;exitX=1;exitY=0.5;exitDx=0;exitDy=0;entryX=-0.023;entryY=0.524;entryDx=0;entryDy=0;entryPerimeter=0;fontFamily=Helvetica;fontSize=12;fontColor=default;autosize=1;" parent="1" source="umhTwzKay9UNLT2Jsbxd-211" target="umhTwzKay9UNLT2Jsbxd-217" edge="1">
          <mxGeometry relative="1" as="geometry" />
        </mxCell>
        <mxCell id="umhTwzKay9UNLT2Jsbxd-219" value="处理接收到的Socket请求" style="text;html=1;align=center;verticalAlign=middle;resizable=0;points=[];autosize=1;strokeColor=none;fillColor=none;fontFamily=Helvetica;fontSize=12;fontColor=default;" parent="1" vertex="1">
          <mxGeometry x="2068" y="95" width="160" height="30" as="geometry" />
        </mxCell>
        <mxCell id="umhTwzKay9UNLT2Jsbxd-220" style="edgeStyle=entityRelationEdgeStyle;rounded=0;orthogonalLoop=1;jettySize=auto;html=1;startArrow=none;endArrow=none;segment=10;curved=1;sourcePerimeterSpacing=0;targetPerimeterSpacing=0;exitX=1;exitY=0.5;exitDx=0;exitDy=0;entryX=0.025;entryY=0.486;entryDx=0;entryDy=0;entryPerimeter=0;fontFamily=Helvetica;fontSize=12;fontColor=default;autosize=1;" parent="1" source="umhTwzKay9UNLT2Jsbxd-212" target="umhTwzKay9UNLT2Jsbxd-219" edge="1">
          <mxGeometry relative="1" as="geometry" />
        </mxCell>
        <mxCell id="umhTwzKay9UNLT2Jsbxd-230" style="edgeStyle=entityRelationEdgeStyle;rounded=0;orthogonalLoop=1;jettySize=auto;html=1;startArrow=none;endArrow=none;segment=10;curved=1;sourcePerimeterSpacing=0;targetPerimeterSpacing=0;exitX=1;exitY=0.5;exitDx=0;exitDy=0;entryX=0;entryY=0.5;entryDx=0;entryDy=0;fontFamily=Helvetica;fontSize=12;fontColor=default;autosize=1;" parent="1" source="umhTwzKay9UNLT2Jsbxd-222" target="umhTwzKay9UNLT2Jsbxd-224" edge="1">
          <mxGeometry relative="1" as="geometry" />
        </mxCell>
        <mxCell id="umhTwzKay9UNLT2Jsbxd-231" style="edgeStyle=entityRelationEdgeStyle;rounded=0;orthogonalLoop=1;jettySize=auto;html=1;startArrow=none;endArrow=none;segment=10;curved=1;sourcePerimeterSpacing=0;targetPerimeterSpacing=0;exitX=1;exitY=0.5;exitDx=0;exitDy=0;entryX=0;entryY=0.5;entryDx=0;entryDy=0;fontFamily=Helvetica;fontSize=12;fontColor=default;autosize=1;" parent="1" source="umhTwzKay9UNLT2Jsbxd-222" target="umhTwzKay9UNLT2Jsbxd-225" edge="1">
          <mxGeometry relative="1" as="geometry" />
        </mxCell>
        <mxCell id="umhTwzKay9UNLT2Jsbxd-232" style="edgeStyle=entityRelationEdgeStyle;rounded=0;orthogonalLoop=1;jettySize=auto;html=1;startArrow=none;endArrow=none;segment=10;curved=1;sourcePerimeterSpacing=0;targetPerimeterSpacing=0;exitX=1;exitY=0.5;exitDx=0;exitDy=0;entryX=0;entryY=0.5;entryDx=0;entryDy=0;fontFamily=Helvetica;fontSize=12;fontColor=default;autosize=1;" parent="1" source="umhTwzKay9UNLT2Jsbxd-222" target="umhTwzKay9UNLT2Jsbxd-226" edge="1">
          <mxGeometry relative="1" as="geometry" />
        </mxCell>
        <mxCell id="umhTwzKay9UNLT2Jsbxd-233" style="edgeStyle=entityRelationEdgeStyle;rounded=0;orthogonalLoop=1;jettySize=auto;html=1;startArrow=none;endArrow=none;segment=10;curved=1;sourcePerimeterSpacing=0;targetPerimeterSpacing=0;exitX=1;exitY=0.5;exitDx=0;exitDy=0;entryX=0;entryY=0.5;entryDx=0;entryDy=0;fontFamily=Helvetica;fontSize=12;fontColor=default;autosize=1;" parent="1" source="umhTwzKay9UNLT2Jsbxd-222" target="umhTwzKay9UNLT2Jsbxd-227" edge="1">
          <mxGeometry relative="1" as="geometry" />
        </mxCell>
        <mxCell id="umhTwzKay9UNLT2Jsbxd-222" value="设计模式" style="whiteSpace=wrap;html=1;rounded=1;arcSize=50;align=center;verticalAlign=middle;strokeWidth=1;autosize=1;spacing=4;treeFolding=1;treeMoving=1;newEdgeStyle={&quot;edgeStyle&quot;:&quot;entityRelationEdgeStyle&quot;,&quot;startArrow&quot;:&quot;none&quot;,&quot;endArrow&quot;:&quot;none&quot;,&quot;segment&quot;:10,&quot;curved&quot;:1,&quot;sourcePerimeterSpacing&quot;:0,&quot;targetPerimeterSpacing&quot;:0};strokeColor=default;fontFamily=Helvetica;fontSize=12;fontColor=default;fillColor=default;" parent="1" vertex="1">
          <mxGeometry x="865" y="325" width="90" height="30" as="geometry" />
        </mxCell>
        <mxCell id="wXRTrByuDZVtQ4qVjIp_-12" style="edgeStyle=entityRelationEdgeStyle;rounded=0;orthogonalLoop=1;jettySize=auto;html=1;startArrow=none;endArrow=none;segment=10;curved=1;sourcePerimeterSpacing=0;targetPerimeterSpacing=0;exitX=1;exitY=0.5;exitDx=0;exitDy=0;" parent="1" source="umhTwzKay9UNLT2Jsbxd-224" target="wXRTrByuDZVtQ4qVjIp_-14" edge="1" visible="0">
          <mxGeometry relative="1" as="geometry">
            <mxPoint x="1315.5" y="285.16666666666674" as="targetPoint" />
          </mxGeometry>
        </mxCell>
        <mxCell id="umhTwzKay9UNLT2Jsbxd-224" value="组合模式" style="whiteSpace=wrap;html=1;rounded=1;arcSize=50;align=center;verticalAlign=middle;strokeWidth=1;autosize=1;spacing=4;treeFolding=1;treeMoving=1;newEdgeStyle={&quot;edgeStyle&quot;:&quot;entityRelationEdgeStyle&quot;,&quot;startArrow&quot;:&quot;none&quot;,&quot;endArrow&quot;:&quot;none&quot;,&quot;segment&quot;:10,&quot;curved&quot;:1,&quot;sourcePerimeterSpacing&quot;:0,&quot;targetPerimeterSpacing&quot;:0};strokeColor=default;fontFamily=Helvetica;fontSize=12;fontColor=default;fillColor=default;" parent="1" vertex="1" collapsed="1">
          <mxGeometry x="1030" y="270" width="90" height="30" as="geometry" />
        </mxCell>
        <mxCell id="wXRTrByuDZVtQ4qVjIp_-48" style="edgeStyle=entityRelationEdgeStyle;rounded=0;orthogonalLoop=1;jettySize=auto;html=1;startArrow=none;endArrow=none;segment=10;curved=1;sourcePerimeterSpacing=0;targetPerimeterSpacing=0;exitX=1;exitY=0.5;exitDx=0;exitDy=0;" parent="1" source="umhTwzKay9UNLT2Jsbxd-225" target="wXRTrByuDZVtQ4qVjIp_-74" edge="1" visible="0">
          <mxGeometry relative="1" as="geometry">
            <mxPoint x="1190" y="335" as="targetPoint" />
          </mxGeometry>
        </mxCell>
        <mxCell id="umhTwzKay9UNLT2Jsbxd-225" value="责任链模式" style="whiteSpace=wrap;html=1;rounded=1;arcSize=50;align=center;verticalAlign=middle;strokeWidth=1;autosize=1;spacing=4;treeFolding=1;treeMoving=1;newEdgeStyle={&quot;edgeStyle&quot;:&quot;entityRelationEdgeStyle&quot;,&quot;startArrow&quot;:&quot;none&quot;,&quot;endArrow&quot;:&quot;none&quot;,&quot;segment&quot;:10,&quot;curved&quot;:1,&quot;sourcePerimeterSpacing&quot;:0,&quot;targetPerimeterSpacing&quot;:0};strokeColor=default;fontFamily=Helvetica;fontSize=12;fontColor=default;fillColor=default;" parent="1" vertex="1" collapsed="1">
          <mxGeometry x="1015" y="320" width="100" height="30" as="geometry" />
        </mxCell>
        <mxCell id="wXRTrByuDZVtQ4qVjIp_-81" style="edgeStyle=entityRelationEdgeStyle;rounded=0;orthogonalLoop=1;jettySize=auto;html=1;startArrow=none;endArrow=none;segment=10;curved=1;sourcePerimeterSpacing=0;targetPerimeterSpacing=0;exitX=1;exitY=0.5;exitDx=0;exitDy=0;entryX=0.75;entryY=1;entryDx=0;entryDy=0;" parent="1" source="umhTwzKay9UNLT2Jsbxd-226" target="wXRTrByuDZVtQ4qVjIp_-80" edge="1" visible="0">
          <mxGeometry relative="1" as="geometry" />
        </mxCell>
        <mxCell id="wXRTrByuDZVtQ4qVjIp_-84" style="edgeStyle=entityRelationEdgeStyle;rounded=0;orthogonalLoop=1;jettySize=auto;html=1;startArrow=none;endArrow=none;segment=10;curved=1;sourcePerimeterSpacing=0;targetPerimeterSpacing=0;exitX=1;exitY=0.5;exitDx=0;exitDy=0;" parent="1" source="umhTwzKay9UNLT2Jsbxd-226" target="wXRTrByuDZVtQ4qVjIp_-87" edge="1" visible="0">
          <mxGeometry relative="1" as="geometry">
            <mxPoint x="1316" y="375.0021052631582" as="targetPoint" />
          </mxGeometry>
        </mxCell>
        <mxCell id="umhTwzKay9UNLT2Jsbxd-226" value="模板方法模式" style="whiteSpace=wrap;html=1;rounded=1;arcSize=50;align=center;verticalAlign=middle;strokeWidth=1;autosize=1;spacing=4;treeFolding=1;treeMoving=1;newEdgeStyle={&quot;edgeStyle&quot;:&quot;entityRelationEdgeStyle&quot;,&quot;startArrow&quot;:&quot;none&quot;,&quot;endArrow&quot;:&quot;none&quot;,&quot;segment&quot;:10,&quot;curved&quot;:1,&quot;sourcePerimeterSpacing&quot;:0,&quot;targetPerimeterSpacing&quot;:0};strokeColor=default;fontFamily=Helvetica;fontSize=12;fontColor=default;fillColor=default;" parent="1" vertex="1" collapsed="1">
          <mxGeometry x="1010" y="360" width="120" height="30" as="geometry" />
        </mxCell>
        <mxCell id="wXRTrByuDZVtQ4qVjIp_-88" style="edgeStyle=entityRelationEdgeStyle;rounded=0;orthogonalLoop=1;jettySize=auto;html=1;startArrow=none;endArrow=none;segment=10;curved=1;sourcePerimeterSpacing=0;targetPerimeterSpacing=0;exitX=1;exitY=0.5;exitDx=0;exitDy=0;" parent="1" source="umhTwzKay9UNLT2Jsbxd-227" target="wXRTrByuDZVtQ4qVjIp_-89" edge="1" visible="0">
          <mxGeometry relative="1" as="geometry">
            <mxPoint x="1260" y="424.70370370370347" as="targetPoint" />
          </mxGeometry>
        </mxCell>
        <mxCell id="umhTwzKay9UNLT2Jsbxd-227" value="观察者模式" style="whiteSpace=wrap;html=1;rounded=1;arcSize=50;align=center;verticalAlign=middle;strokeWidth=1;autosize=1;spacing=4;treeFolding=1;treeMoving=1;newEdgeStyle={&quot;edgeStyle&quot;:&quot;entityRelationEdgeStyle&quot;,&quot;startArrow&quot;:&quot;none&quot;,&quot;endArrow&quot;:&quot;none&quot;,&quot;segment&quot;:10,&quot;curved&quot;:1,&quot;sourcePerimeterSpacing&quot;:0,&quot;targetPerimeterSpacing&quot;:0};strokeColor=default;fontFamily=Helvetica;fontSize=12;fontColor=default;fillColor=default;" parent="1" vertex="1" collapsed="1">
          <mxGeometry x="1020" y="410" width="100" height="30" as="geometry" />
        </mxCell>
        <mxCell id="wXRTrByuDZVtQ4qVjIp_-79" style="edgeStyle=entityRelationEdgeStyle;rounded=0;orthogonalLoop=1;jettySize=auto;html=1;startArrow=none;endArrow=none;segment=10;curved=1;sourcePerimeterSpacing=0;targetPerimeterSpacing=0;exitX=1;exitY=0.5;exitDx=0;exitDy=0;" parent="1" source="umhTwzKay9UNLT2Jsbxd-228" target="wXRTrByuDZVtQ4qVjIp_-80" edge="1">
          <mxGeometry relative="1" as="geometry">
            <mxPoint x="1070" y="-40" as="targetPoint" />
          </mxGeometry>
        </mxCell>
        <mxCell id="umhTwzKay9UNLT2Jsbxd-228" value="生命周期" style="whiteSpace=wrap;html=1;rounded=1;arcSize=50;align=center;verticalAlign=middle;strokeWidth=1;autosize=1;spacing=4;treeFolding=1;treeMoving=1;newEdgeStyle={&quot;edgeStyle&quot;:&quot;entityRelationEdgeStyle&quot;,&quot;startArrow&quot;:&quot;none&quot;,&quot;endArrow&quot;:&quot;none&quot;,&quot;segment&quot;:10,&quot;curved&quot;:1,&quot;sourcePerimeterSpacing&quot;:0,&quot;targetPerimeterSpacing&quot;:0};strokeColor=default;fontFamily=Helvetica;fontSize=12;fontColor=default;fillColor=default;" parent="1" vertex="1">
          <mxGeometry x="845" y="10" width="90" height="30" as="geometry" />
        </mxCell>
        <mxCell id="umhTwzKay9UNLT2Jsbxd-234" style="edgeStyle=entityRelationEdgeStyle;rounded=0;orthogonalLoop=1;jettySize=auto;html=1;startArrow=none;endArrow=none;segment=10;curved=1;sourcePerimeterSpacing=0;targetPerimeterSpacing=0;exitX=1;exitY=0.5;exitDx=0;exitDy=0;entryX=0;entryY=0.5;entryDx=0;entryDy=0;fontFamily=Helvetica;fontSize=12;fontColor=default;autosize=1;" parent="1" source="umhTwzKay9UNLT2Jsbxd-194" target="umhTwzKay9UNLT2Jsbxd-210" edge="1">
          <mxGeometry relative="1" as="geometry" />
        </mxCell>
        <mxCell id="wXRTrByuDZVtQ4qVjIp_-2" value="提供字节流给Processor" style="text;html=1;align=center;verticalAlign=middle;whiteSpace=wrap;rounded=0;" parent="1" vertex="1">
          <mxGeometry x="1570" y="5" width="60" height="30" as="geometry" />
        </mxCell>
        <mxCell id="wXRTrByuDZVtQ4qVjIp_-1" style="edgeStyle=entityRelationEdgeStyle;rounded=0;orthogonalLoop=1;jettySize=auto;html=1;startArrow=none;endArrow=none;segment=10;curved=1;sourcePerimeterSpacing=0;targetPerimeterSpacing=0;exitX=0.75;exitY=0;exitDx=0;exitDy=0;" parent="1" source="umhTwzKay9UNLT2Jsbxd-194" target="wXRTrByuDZVtQ4qVjIp_-2" edge="1">
          <mxGeometry relative="1" as="geometry">
            <mxPoint x="1600" y="20" as="targetPoint" />
          </mxGeometry>
        </mxCell>
        <mxCell id="wXRTrByuDZVtQ4qVjIp_-4" value="提供Tomcat Request给Adapter" style="text;html=1;align=center;verticalAlign=middle;whiteSpace=wrap;rounded=0;" parent="1" vertex="1">
          <mxGeometry x="1650" y="145" width="60" height="30" as="geometry" />
        </mxCell>
        <mxCell id="wXRTrByuDZVtQ4qVjIp_-3" style="edgeStyle=entityRelationEdgeStyle;rounded=0;orthogonalLoop=1;jettySize=auto;html=1;startArrow=none;endArrow=none;segment=10;curved=1;sourcePerimeterSpacing=0;targetPerimeterSpacing=0;exitX=1;exitY=0.5;exitDx=0;exitDy=0;" parent="1" source="umhTwzKay9UNLT2Jsbxd-195" target="wXRTrByuDZVtQ4qVjIp_-4" edge="1">
          <mxGeometry relative="1" as="geometry">
            <mxPoint x="1680" y="160" as="targetPoint" />
          </mxGeometry>
        </mxCell>
        <mxCell id="wXRTrByuDZVtQ4qVjIp_-11" value="CoyoteAdapter将Tomcat Request 转换为ServletRequest 然后调用容器的service方法" style="rounded=1;whiteSpace=wrap;html=1;" parent="1" vertex="1">
          <mxGeometry x="1540" y="212.73999999999998" width="200" height="64.52" as="geometry" />
        </mxCell>
        <mxCell id="wXRTrByuDZVtQ4qVjIp_-15" style="edgeStyle=orthogonalEdgeStyle;rounded=0;orthogonalLoop=1;jettySize=auto;html=1;exitX=1;exitY=0.5;exitDx=0;exitDy=0;entryX=-0.018;entryY=0.184;entryDx=0;entryDy=0;entryPerimeter=0;" parent="1" source="wXRTrByuDZVtQ4qVjIp_-14" target="wXRTrByuDZVtQ4qVjIp_-44" edge="1" visible="0">
          <mxGeometry relative="1" as="geometry">
            <mxPoint x="1440" y="325.16666666666674" as="targetPoint" />
          </mxGeometry>
        </mxCell>
        <mxCell id="wXRTrByuDZVtQ4qVjIp_-14" value="Tomcat 的容器Engine, Host, Context, Wrapper 使用组合模式进行管理" style="rounded=0;whiteSpace=wrap;html=1;" parent="1" vertex="1" visible="0">
          <mxGeometry x="1255.5" y="255.16666666666674" width="120" height="60" as="geometry" />
        </mxCell>
        <mxCell id="wXRTrByuDZVtQ4qVjIp_-44" value="Container" style="swimlane;fontStyle=0;childLayout=stackLayout;horizontal=1;startSize=26;fillColor=none;horizontalStack=0;resizeParent=1;resizeParentMax=0;resizeLast=0;collapsible=1;marginBottom=0;whiteSpace=wrap;html=1;" parent="1" vertex="1" visible="0">
          <mxGeometry x="1470" y="260" width="170" height="140" as="geometry" />
        </mxCell>
        <mxCell id="wXRTrByuDZVtQ4qVjIp_-45" value="+ getParent(): Container" style="text;strokeColor=none;fillColor=none;align=left;verticalAlign=top;spacingLeft=4;spacingRight=4;overflow=hidden;rotatable=0;points=[[0,0.5],[1,0.5]];portConstraint=eastwest;whiteSpace=wrap;html=1;" parent="wXRTrByuDZVtQ4qVjIp_-44" vertex="1">
          <mxGeometry y="26" width="170" height="26" as="geometry" />
        </mxCell>
        <mxCell id="wXRTrByuDZVtQ4qVjIp_-46" value="+ setParent(Container)" style="text;strokeColor=none;fillColor=none;align=left;verticalAlign=top;spacingLeft=4;spacingRight=4;overflow=hidden;rotatable=0;points=[[0,0.5],[1,0.5]];portConstraint=eastwest;whiteSpace=wrap;html=1;" parent="wXRTrByuDZVtQ4qVjIp_-44" vertex="1">
          <mxGeometry y="52" width="170" height="26" as="geometry" />
        </mxCell>
        <mxCell id="wXRTrByuDZVtQ4qVjIp_-47" value="+ addChild(Container)&lt;div&gt;&lt;br&gt;&lt;div&gt;+ removeChild(Container)&lt;/div&gt;&lt;/div&gt;" style="text;strokeColor=none;fillColor=none;align=left;verticalAlign=top;spacingLeft=4;spacingRight=4;overflow=hidden;rotatable=0;points=[[0,0.5],[1,0.5]];portConstraint=eastwest;whiteSpace=wrap;html=1;" parent="wXRTrByuDZVtQ4qVjIp_-44" vertex="1">
          <mxGeometry y="78" width="170" height="62" as="geometry" />
        </mxCell>
        <mxCell id="wXRTrByuDZVtQ4qVjIp_-54" value="Valve" style="swimlane;fontStyle=0;childLayout=stackLayout;horizontal=1;startSize=26;fillColor=none;horizontalStack=0;resizeParent=1;resizeParentMax=0;resizeLast=0;collapsible=1;marginBottom=0;whiteSpace=wrap;html=1;" parent="1" vertex="1" visible="0">
          <mxGeometry x="1790" y="269.99925925925925" width="190" height="104" as="geometry" />
        </mxCell>
        <mxCell id="wXRTrByuDZVtQ4qVjIp_-55" value="+ getNext(): Valve" style="text;strokeColor=none;fillColor=none;align=left;verticalAlign=top;spacingLeft=4;spacingRight=4;overflow=hidden;rotatable=0;points=[[0,0.5],[1,0.5]];portConstraint=eastwest;whiteSpace=wrap;html=1;" parent="wXRTrByuDZVtQ4qVjIp_-54" vertex="1">
          <mxGeometry y="26" width="190" height="26" as="geometry" />
        </mxCell>
        <mxCell id="wXRTrByuDZVtQ4qVjIp_-56" value="+ setNext(Valve)" style="text;strokeColor=none;fillColor=none;align=left;verticalAlign=top;spacingLeft=4;spacingRight=4;overflow=hidden;rotatable=0;points=[[0,0.5],[1,0.5]];portConstraint=eastwest;whiteSpace=wrap;html=1;" parent="wXRTrByuDZVtQ4qVjIp_-54" vertex="1">
          <mxGeometry y="52" width="190" height="26" as="geometry" />
        </mxCell>
        <mxCell id="wXRTrByuDZVtQ4qVjIp_-57" value="+ invoke(Request, Response)" style="text;strokeColor=none;fillColor=none;align=left;verticalAlign=top;spacingLeft=4;spacingRight=4;overflow=hidden;rotatable=0;points=[[0,0.5],[1,0.5]];portConstraint=eastwest;whiteSpace=wrap;html=1;" parent="wXRTrByuDZVtQ4qVjIp_-54" vertex="1">
          <mxGeometry y="78" width="190" height="26" as="geometry" />
        </mxCell>
        <mxCell id="wXRTrByuDZVtQ4qVjIp_-59" value="Pipeline" style="swimlane;fontStyle=0;childLayout=stackLayout;horizontal=1;startSize=26;fillColor=none;horizontalStack=0;resizeParent=1;resizeParentMax=0;resizeLast=0;collapsible=1;marginBottom=0;whiteSpace=wrap;html=1;" parent="1" vertex="1" visible="0">
          <mxGeometry x="2050" y="280.9985714285713" width="140" height="104" as="geometry" />
        </mxCell>
        <mxCell id="wXRTrByuDZVtQ4qVjIp_-60" value="+ getBasic() Valve" style="text;strokeColor=none;fillColor=none;align=left;verticalAlign=top;spacingLeft=4;spacingRight=4;overflow=hidden;rotatable=0;points=[[0,0.5],[1,0.5]];portConstraint=eastwest;whiteSpace=wrap;html=1;" parent="wXRTrByuDZVtQ4qVjIp_-59" vertex="1">
          <mxGeometry y="26" width="140" height="26" as="geometry" />
        </mxCell>
        <mxCell id="wXRTrByuDZVtQ4qVjIp_-61" value="+ getFirst(): Valve" style="text;strokeColor=none;fillColor=none;align=left;verticalAlign=top;spacingLeft=4;spacingRight=4;overflow=hidden;rotatable=0;points=[[0,0.5],[1,0.5]];portConstraint=eastwest;whiteSpace=wrap;html=1;" parent="wXRTrByuDZVtQ4qVjIp_-59" vertex="1">
          <mxGeometry y="52" width="140" height="26" as="geometry" />
        </mxCell>
        <mxCell id="wXRTrByuDZVtQ4qVjIp_-62" value="+ ...." style="text;strokeColor=none;fillColor=none;align=left;verticalAlign=top;spacingLeft=4;spacingRight=4;overflow=hidden;rotatable=0;points=[[0,0.5],[1,0.5]];portConstraint=eastwest;whiteSpace=wrap;html=1;" parent="wXRTrByuDZVtQ4qVjIp_-59" vertex="1">
          <mxGeometry y="78" width="140" height="26" as="geometry" />
        </mxCell>
        <mxCell id="wXRTrByuDZVtQ4qVjIp_-69" style="edgeStyle=entityRelationEdgeStyle;rounded=0;orthogonalLoop=1;jettySize=auto;html=1;startArrow=none;endArrow=none;segment=10;curved=1;sourcePerimeterSpacing=0;targetPerimeterSpacing=0;exitX=1;exitY=0.5;exitDx=0;exitDy=0;" parent="1" source="wXRTrByuDZVtQ4qVjIp_-67" target="wXRTrByuDZVtQ4qVjIp_-70" edge="1" visible="0">
          <mxGeometry relative="1" as="geometry">
            <mxPoint x="1690" y="160" as="targetPoint" />
          </mxGeometry>
        </mxCell>
        <mxCell id="wXRTrByuDZVtQ4qVjIp_-71" style="edgeStyle=entityRelationEdgeStyle;rounded=0;orthogonalLoop=1;jettySize=auto;html=1;startArrow=none;endArrow=none;segment=10;curved=1;sourcePerimeterSpacing=0;targetPerimeterSpacing=0;exitX=1;exitY=0.5;exitDx=0;exitDy=0;" parent="1" source="wXRTrByuDZVtQ4qVjIp_-67" target="wXRTrByuDZVtQ4qVjIp_-72" edge="1" visible="0">
          <mxGeometry relative="1" as="geometry">
            <mxPoint x="1700" y="200" as="targetPoint" />
          </mxGeometry>
        </mxCell>
        <mxCell id="wXRTrByuDZVtQ4qVjIp_-77" style="edgeStyle=entityRelationEdgeStyle;rounded=0;orthogonalLoop=1;jettySize=auto;html=1;startArrow=none;endArrow=none;segment=10;curved=1;sourcePerimeterSpacing=0;targetPerimeterSpacing=0;exitX=1;exitY=0.5;exitDx=0;exitDy=0;" parent="1" source="wXRTrByuDZVtQ4qVjIp_-67" target="wXRTrByuDZVtQ4qVjIp_-78" edge="1" visible="0">
          <mxGeometry relative="1" as="geometry">
            <mxPoint x="2070" y="236.15384615384608" as="targetPoint" />
          </mxGeometry>
        </mxCell>
        <mxCell id="wXRTrByuDZVtQ4qVjIp_-67" value="Valve 和 Filter的区别" style="whiteSpace=wrap;html=1;rounded=1;arcSize=50;align=center;verticalAlign=middle;strokeWidth=1;autosize=1;spacing=4;treeFolding=1;treeMoving=1;newEdgeStyle={&quot;edgeStyle&quot;:&quot;entityRelationEdgeStyle&quot;,&quot;startArrow&quot;:&quot;none&quot;,&quot;endArrow&quot;:&quot;none&quot;,&quot;segment&quot;:10,&quot;curved&quot;:1,&quot;sourcePerimeterSpacing&quot;:0,&quot;targetPerimeterSpacing&quot;:0};" parent="1" vertex="1" visible="0">
          <mxGeometry x="1480" y="221" width="150" height="30" as="geometry" />
        </mxCell>
        <mxCell id="wXRTrByuDZVtQ4qVjIp_-68" value="" style="edgeStyle=entityRelationEdgeStyle;startArrow=none;endArrow=none;segment=10;curved=1;sourcePerimeterSpacing=0;targetPerimeterSpacing=0;rounded=0;exitX=0.483;exitY=0.026;exitDx=0;exitDy=0;exitPerimeter=0;" parent="1" source="wXRTrByuDZVtQ4qVjIp_-74" target="wXRTrByuDZVtQ4qVjIp_-67" edge="1" visible="0">
          <mxGeometry relative="1" as="geometry">
            <mxPoint x="1430" y="307.5" as="sourcePoint" />
          </mxGeometry>
        </mxCell>
        <mxCell id="wXRTrByuDZVtQ4qVjIp_-70" value="Valve是Tomcat的私有机制, Servlet的Filter是公有标准, 所有Servlet 容器包括Jetty都支持Filter" style="whiteSpace=wrap;html=1;rounded=1;arcSize=50;align=center;verticalAlign=middle;strokeWidth=1;autosize=1;spacing=4;treeFolding=1;treeMoving=1;newEdgeStyle={&quot;edgeStyle&quot;:&quot;entityRelationEdgeStyle&quot;,&quot;startArrow&quot;:&quot;none&quot;,&quot;endArrow&quot;:&quot;none&quot;,&quot;segment&quot;:10,&quot;curved&quot;:1,&quot;sourcePerimeterSpacing&quot;:0,&quot;targetPerimeterSpacing&quot;:0};" parent="1" vertex="1" visible="0">
          <mxGeometry x="1430" y="120" width="530" height="30" as="geometry" />
        </mxCell>
        <mxCell id="wXRTrByuDZVtQ4qVjIp_-72" value="Valve工作在Web容器级别, 拦截所有应用的请求, 而Filter工作在应用级别, 只拦截当前web应用" style="whiteSpace=wrap;html=1;rounded=1;arcSize=50;align=center;verticalAlign=middle;strokeWidth=1;autosize=1;spacing=4;treeFolding=1;treeMoving=1;newEdgeStyle={&quot;edgeStyle&quot;:&quot;entityRelationEdgeStyle&quot;,&quot;startArrow&quot;:&quot;none&quot;,&quot;endArrow&quot;:&quot;none&quot;,&quot;segment&quot;:10,&quot;curved&quot;:1,&quot;sourcePerimeterSpacing&quot;:0,&quot;targetPerimeterSpacing&quot;:0};" parent="1" vertex="1" visible="0">
          <mxGeometry x="1425" y="170" width="540" height="30" as="geometry" />
        </mxCell>
        <mxCell id="wXRTrByuDZVtQ4qVjIp_-74" value="Adapter调用Engine的First Valve处理ServletRequest, Engine会做一些处理后传给Host,&amp;nbsp;&lt;div&gt;Host做一些处理后传给Context, 依次类推.&lt;br&gt;&amp;nbsp;这个过程通过Pipeline-Valve管道实现了责任链模式&lt;/div&gt;" style="whiteSpace=wrap;html=1;rounded=1;arcSize=50;align=center;verticalAlign=middle;strokeWidth=1;autosize=1;spacing=4;treeFolding=1;treeMoving=1;newEdgeStyle={&quot;edgeStyle&quot;:&quot;entityRelationEdgeStyle&quot;,&quot;startArrow&quot;:&quot;none&quot;,&quot;endArrow&quot;:&quot;none&quot;,&quot;segment&quot;:10,&quot;curved&quot;:1,&quot;sourcePerimeterSpacing&quot;:0,&quot;targetPerimeterSpacing&quot;:0};" parent="1" vertex="1" visible="0" collapsed="1">
          <mxGeometry x="1180" y="305" width="510" height="60" as="geometry" />
        </mxCell>
        <mxCell id="wXRTrByuDZVtQ4qVjIp_-75" style="edgeStyle=entityRelationEdgeStyle;rounded=0;orthogonalLoop=1;jettySize=auto;html=1;startArrow=none;endArrow=none;segment=10;curved=1;sourcePerimeterSpacing=0;targetPerimeterSpacing=0;exitX=1;exitY=0.5;exitDx=0;exitDy=0;entryX=-0.012;entryY=0.129;entryDx=0;entryDy=0;entryPerimeter=0;" parent="1" source="wXRTrByuDZVtQ4qVjIp_-74" target="wXRTrByuDZVtQ4qVjIp_-54" edge="1" visible="0">
          <mxGeometry relative="1" as="geometry">
            <Array as="points">
              <mxPoint x="1830" y="330" />
            </Array>
          </mxGeometry>
        </mxCell>
        <mxCell id="wXRTrByuDZVtQ4qVjIp_-76" style="edgeStyle=entityRelationEdgeStyle;rounded=0;orthogonalLoop=1;jettySize=auto;html=1;startArrow=none;endArrow=none;segment=10;curved=1;sourcePerimeterSpacing=0;targetPerimeterSpacing=0;exitX=1;exitY=0.5;exitDx=0;exitDy=0;entryX=-0.005;entryY=0.186;entryDx=0;entryDy=0;entryPerimeter=0;" parent="1" source="wXRTrByuDZVtQ4qVjIp_-74" target="wXRTrByuDZVtQ4qVjIp_-59" edge="1" visible="0">
          <mxGeometry relative="1" as="geometry" />
        </mxCell>
        <mxCell id="wXRTrByuDZVtQ4qVjIp_-78" value="Valve底层实现为单向链表, Filter为数组" style="whiteSpace=wrap;html=1;rounded=1;arcSize=50;align=center;verticalAlign=middle;strokeWidth=1;autosize=1;spacing=4;treeFolding=1;treeMoving=1;newEdgeStyle={&quot;edgeStyle&quot;:&quot;entityRelationEdgeStyle&quot;,&quot;startArrow&quot;:&quot;none&quot;,&quot;endArrow&quot;:&quot;none&quot;,&quot;segment&quot;:10,&quot;curved&quot;:1,&quot;sourcePerimeterSpacing&quot;:0,&quot;targetPerimeterSpacing&quot;:0};" parent="1" vertex="1" visible="0">
          <mxGeometry x="1980" y="221.00384615384607" width="250" height="30" as="geometry" />
        </mxCell>
        <mxCell id="wXRTrByuDZVtQ4qVjIp_-80" value="Tomcat 需要统一管理组件的创建, 初始化, 启动, 停止和销毁,&lt;div&gt;为了方便管理和拓展组件, Tomcat使用了模板方法模式和观察者模式&lt;/div&gt;" style="whiteSpace=wrap;html=1;rounded=1;arcSize=50;align=center;verticalAlign=middle;strokeWidth=1;autosize=1;spacing=4;treeFolding=1;treeMoving=1;newEdgeStyle={&quot;edgeStyle&quot;:&quot;entityRelationEdgeStyle&quot;,&quot;startArrow&quot;:&quot;none&quot;,&quot;endArrow&quot;:&quot;none&quot;,&quot;segment&quot;:10,&quot;curved&quot;:1,&quot;sourcePerimeterSpacing&quot;:0,&quot;targetPerimeterSpacing&quot;:0};" parent="1" vertex="1">
          <mxGeometry x="970" y="-40" width="400" height="50" as="geometry" />
        </mxCell>
        <mxCell id="wXRTrByuDZVtQ4qVjIp_-82" style="edgeStyle=entityRelationEdgeStyle;rounded=0;orthogonalLoop=1;jettySize=auto;html=1;startArrow=none;endArrow=none;segment=10;curved=1;sourcePerimeterSpacing=0;targetPerimeterSpacing=0;exitX=1;exitY=0.25;exitDx=0;exitDy=0;entryX=0.871;entryY=1.011;entryDx=0;entryDy=0;entryPerimeter=0;" parent="1" source="umhTwzKay9UNLT2Jsbxd-227" target="wXRTrByuDZVtQ4qVjIp_-80" edge="1" visible="0">
          <mxGeometry relative="1" as="geometry" />
        </mxCell>
        <mxCell id="wXRTrByuDZVtQ4qVjIp_-87" value="LifeCycleBase中实现了LifeCycle&lt;div&gt;中的方法, 并提供initInternal等抽象方法供继承类扩展&lt;/div&gt;" style="rounded=1;whiteSpace=wrap;html=1;" parent="1" vertex="1" visible="0">
          <mxGeometry x="1256" y="345" width="304" height="60" as="geometry" />
        </mxCell>
        <mxCell id="wXRTrByuDZVtQ4qVjIp_-89" value="LifeCycle提供addLifecycleListener提供开发者监听生命周期变化来实现自定义逻辑" style="rounded=1;whiteSpace=wrap;html=1;" parent="1" vertex="1" visible="0">
          <mxGeometry x="1260" y="420" width="320" height="60" as="geometry" />
        </mxCell>
      </root>
    </mxGraphModel>
  </diagram>
</mxfile>
